999
DXF generated by OpenJsCad
  0
SECTION
  2
HEADER
  0
ENDSEC
  0
SECTION
  2
TABLES
  0
TABLE
  2
LTYPE
  70
1
  0
LTYPE
  2
CONTINUOUS
  3
Solid Line
  72
65
  73
0
  40
0.0
  0
ENDTAB
  0
TABLE
  2
LAYER
  70
1
  0
LAYER
  2
OpenJsCad
  62
7
  6
continuous
  0
ENDTAB
  0
TABLE
  2
STYLE
  70
0
  0
ENDTAB
  0
TABLE
  2
VIEW
  70
0
  0
ENDTAB
  0
ENDSEC
  0
SECTION
  2
BLOCKS
  0
ENDSEC
  0
SECTION
  2
ENTITIES
  0
LWPOLYLINE
  8
OpenJsCad
  90
6
  70
1
 10
-56.568542494923804
 20
-98.99494936611664
 30
0.0
 10
-38.890872965260115
 20
-81.31727983645297
 30
0.0
 10
-56.568542494923804
 20
-63.63961030678927
 30
0.0
 10
-57
 20
-64.07106781186548
 30
0.0
 10
-57
 20
-98.56349186104045
 30
0.0
 10
-56.568542494923804
 20
-98.99494936611664
 30
0.0
  0
LWPOLYLINE
  8
OpenJsCad
  90
6
  70
1
 10
-56.568542494923804
 20
-56.5685424949238
 30
0.0
 10
-38.890872965260115
 20
-38.89087296526011
 30
0.0
 10
-56.568542494923804
 20
-21.21320343559642
 30
0.0
 10
-57
 20
-21.644660940672615
 30
0.0
 10
-57
 20
-56.137084989847594
 30
0.0
 10
-56.568542494923804
 20
-56.5685424949238
 30
0.0
  0
LWPOLYLINE
  8
OpenJsCad
  90
20
  70
1
 10
-13.596747752497683
 20
41.84648671698676
 30
0.0
 10
-21.99999999999999
 20
38.105117766515306
 30
0.0
 10
-29.44174667978975
 20
32.69837232100536
 30
0.0
 10
-35.596747752497684
 20
25.862551100868824
 30
0.0
 10
-40.19600013627444
 20
17.896412295335203
 30
0.0
 10
-43.03849443228745
 20
9.148114395981409
 30
0.0
 10
-44
 20
2.492837114965111e-14
 30
0.0
 10
-43.03849443228745
 20
-9.148114395981398
 30
0.0
 10
-40.196000136274435
 20
-17.89641229533521
 30
0.0
 10
-35.59674775249769
 20
-25.862551100868814
 30
0.0
 10
-29.441746679789773
 20
-32.69837232100534
 30
0.0
 10
-22.00000000000002
 20
-38.10511776651529
 30
0.0
 10
-13.596747752497693
 20
-41.84648671698675
 30
0.0
 10
-5
 20
-43.67378186080216
 30
0.0
 10
-5
 20
-44
 30
0.0
 10
55
 20
-44
 30
0.0
 10
55
 20
44
 30
0.0
 10
-5
 20
44
 30
0.0
 10
-5
 20
43.67378186080216
 30
0.0
 10
-13.596747752497683
 20
41.84648671698676
 30
0.0
  0
LWPOLYLINE
  8
OpenJsCad
  90
31
  70
1
 10
31.300723223481782
 20
6.653174106168298
 30
0.0
 10
32
 20
0
 30
0.0
 10
31.300723223481782
 20
-6.653174106168287
 30
0.0
 10
29.23345464456323
 20
-13.015572578425605
 30
0.0
 10
25.888543819998315
 20
-18.809128073359147
 30
0.0
 10
21.41217940348347
 20
-23.78063441527661
 30
0.0
 10
16.000000000000004
 20
-27.712812921102035
 30
0.0
 10
9.888543819998311
 20
-30.433808521444917
 30
0.0
 10
3.3449108245648955
 20
-31.82470065178475
 30
0.0
 10
-3.3449108245649355
 20
-31.824700651784745
 30
0.0
 10
-9.888543819998322
 20
-30.433808521444913
 30
0.0
 10
-16.000000000000014
 20
-27.71281292110203
 30
0.0
 10
-21.41217940348347
 20
-23.78063441527661
 30
0.0
 10
-25.88854381999832
 20
-18.809128073359137
 30
0.0
 10
-29.233454644563228
 20
-13.015572578425607
 30
0.0
 10
-31.300723223481782
 20
-6.65317410616829
 30
0.0
 10
-32
 20
1.8129724472473535e-14
 30
0.0
 10
-31.300723223481782
 20
6.653174106168298
 30
0.0
 10
-29.23345464456323
 20
13.015572578425601
 30
0.0
 10
-25.888543819998315
 20
18.809128073359144
 30
0.0
 10
-21.412179403483453
 20
23.780634415276623
 30
0.0
 10
-15.999999999999993
 20
27.71281292110204
 30
0.0
 10
-9.888543819998315
 20
30.433808521444917
 30
0.0
 10
-3.3449108245649066
 20
31.82470065178475
 30
0.0
 10
3.3449108245649106
 20
31.824700651784745
 30
0.0
 10
9.888543819998318
 20
30.433808521444913
 30
0.0
 10
16.000000000000004
 20
27.712812921102035
 30
0.0
 10
21.412179403483464
 20
23.780634415276616
 30
0.0
 10
25.88854381999832
 20
18.80912807335914
 30
0.0
 10
29.233454644563228
 20
13.015572578425605
 30
0.0
 10
31.300723223481782
 20
6.653174106168298
 30
0.0
  0
ENDSEC
  0
EOF
