0
SECTION
2
HEADER
9
$INSUNITS
70
4
0
ENDSEC
0
SECTION
2
TABLES
0
TABLE
2
LTYPE
0
LTYPE
72
65
70
64
2
CONTINUOUS
3
______
73
0
40
0
0
ENDTAB
0
TABLE
2
LAYER
0
ENDTAB
0
ENDSEC
0
SECTION
2
ENTITIES
0
LINE
8
front_outsideCutPath
10
0
20
203
11
0
21
172.31025
0
LINE
8
front_outsideCutPath
10
0
20
172.31025
11
4
21
172.31025
0
LINE
8
front_outsideCutPath
10
4
20
172.31025
11
4
21
144.58615
0
LINE
8
front_outsideCutPath
10
4
20
144.58615
11
0
21
144.58615
0
LINE
8
front_outsideCutPath
10
0
20
144.58615
11
0
21
116.86205
0
LINE
8
front_outsideCutPath
10
0
20
116.86205
11
4
21
116.86205
0
LINE
8
front_outsideCutPath
10
4
20
116.86205
11
4
21
89.13795
0
LINE
8
front_outsideCutPath
10
4
20
89.13795
11
0
21
89.13795
0
LINE
8
front_outsideCutPath
10
0
20
89.13795
11
0
21
61.41385
0
LINE
8
front_outsideCutPath
10
0
20
61.41385
11
4
21
61.41385
0
LINE
8
front_outsideCutPath
10
4
20
61.41385
11
4
21
33.68975
0
LINE
8
front_outsideCutPath
10
4
20
33.68975
11
0
21
33.68975
0
LINE
8
front_outsideCutPath
10
0
20
33.68975
11
0
21
3
0
LINE
8
front_outsideCutPath
10
0
20
3
11
33.41385
21
3
0
LINE
8
front_outsideCutPath
10
33.41385
20
3
11
33.41385
21
7
0
LINE
8
front_outsideCutPath
10
33.41385
20
7
11
61.13795
21
7
0
LINE
8
front_outsideCutPath
10
61.13795
20
7
11
61.13795
21
3
0
LINE
8
front_outsideCutPath
10
61.13795
20
3
11
88.86205
21
3
0
LINE
8
front_outsideCutPath
10
88.86205
20
3
11
88.86205
21
7
0
LINE
8
front_outsideCutPath
10
88.86205
20
7
11
116.58615
21
7
0
LINE
8
front_outsideCutPath
10
116.58615
20
7
11
116.58615
21
3
0
LINE
8
front_outsideCutPath
10
116.58615
20
3
11
144.31025
21
3
0
LINE
8
front_outsideCutPath
10
144.31025
20
3
11
150
21
3
0
LINE
8
front_outsideCutPath
10
150
20
3
11
150
21
33.68975
0
LINE
8
front_outsideCutPath
10
150
20
33.68975
11
146
21
33.68975
0
LINE
8
front_outsideCutPath
10
146
20
33.68975
11
146
21
61.41385
0
LINE
8
front_outsideCutPath
10
146
20
61.41385
11
150
21
61.41385
0
LINE
8
front_outsideCutPath
10
150
20
61.41385
11
150
21
89.13795
0
LINE
8
front_outsideCutPath
10
150
20
89.13795
11
146
21
89.13795
0
LINE
8
front_outsideCutPath
10
146
20
89.13795
11
146
21
116.86205
0
LINE
8
front_outsideCutPath
10
146
20
116.86205
11
150
21
116.86205
0
LINE
8
front_outsideCutPath
10
150
20
116.86205
11
150
21
144.58615
0
LINE
8
front_outsideCutPath
10
150
20
144.58615
11
146
21
144.58615
0
LINE
8
front_outsideCutPath
10
146
20
144.58615
11
146
21
172.31025
0
LINE
8
front_outsideCutPath
10
146
20
172.31025
11
150
21
172.31025
0
LINE
8
front_outsideCutPath
10
150
20
172.31025
11
150
21
203
0
LINE
8
front_outsideCutPath
10
150
20
203
11
116.58615
21
203
0
LINE
8
front_outsideCutPath
10
116.58615
20
203
11
116.58615
21
199
0
LINE
8
front_outsideCutPath
10
116.58615
20
199
11
88.86205
21
199
0
LINE
8
front_outsideCutPath
10
88.86205
20
199
11
88.86205
21
203
0
LINE
8
front_outsideCutPath
10
88.86205
20
203
11
61.13795
21
203
0
LINE
8
front_outsideCutPath
10
61.13795
20
203
11
61.13795
21
199
0
LINE
8
front_outsideCutPath
10
61.13795
20
199
11
33.41385
21
199
0
LINE
8
front_outsideCutPath
10
33.41385
20
199
11
33.41385
21
203
0
LINE
8
front_outsideCutPath
10
33.41385
20
203
11
5.68975
21
203
0
LINE
8
front_outsideCutPath
10
5.68975
20
203
11
0
21
203
0
LINE
8
front_labelLayer
10
50.1489258
20
107.7244387
11
50.1489258
21
105.8347903
0
LINE
8
front_labelLayer
10
50.1489258
20
105.8347903
11
46.0620117
21
105.8347903
0
LINE
8
front_labelLayer
10
46.0620117
20
105.8347903
11
46.0620117
21
91.6697512
0
LINE
8
front_labelLayer
10
46.0620117
20
91.6697512
11
43.6303711
21
91.6697512
0
LINE
8
front_labelLayer
10
43.6303711
20
91.6697512
11
43.6303711
21
105.8347903
0
LINE
8
front_labelLayer
10
43.6303711
20
105.8347903
11
40.7592773
21
105.8347903
0
LINE
8
front_labelLayer
10
40.7592773
20
105.8347903
11
40.7592773
21
106.9334231
0
LINE
8
front_labelLayer
10
40.7592773
20
106.9334231
11
43.6303711
21
107.8123294
0
LINE
8
front_labelLayer
10
43.6303711
20
107.8123294
11
43.6303711
21
108.7058841
0
LINE
8
front_labelLayer
10
51.7895508
20
114.1111575
11
51.1596679
21
112.1629153
0
LINE
8
front_labelLayer
10
46.0620117
20
108.7644778
11
46.0620117
21
107.7244387
0
LINE
8
front_labelLayer
10
46.0620117
20
107.7244387
11
50.1489258
21
107.7244387
0
ARC
8
front_labelLayer
10
53.484965
20
108.8191767
40
9.8552451
50
167.5775976
51
180.6586678
0
ARC
8
front_labelLayer
10
48.8507024
20
109.8996182
40
5.0973901
50
141.7433814
51
168.2322083
0
ARC
8
front_labelLayer
10
48.0961521
20
110.2934369
40
4.2639634
50
98.2551487
51
139.6203318
0
ARC
8
front_labelLayer
10
48.7586612
20
107.2328878
40
7.3910878
50
89.6696978
51
99.9314191
0
ARC
8
front_labelLayer
10
48.7605095
20
106.7935187
40
7.8304402
50
81.5640965
51
89.7017554
0
ARC
8
front_labelLayer
10
48.2100128
20
102.9529565
40
11.7102243
50
75.9739888
51
81.6564776
0
ARC
8
front_labelLayer
10
47.2653189
20
99.0345687
40
15.7407816
50
73.2963794
51
76.094621
0
ARC
8
front_labelLayer
10
47.5032211
20
100.9353179
40
11.8079866
50
71.9613311
51
76.5918215
0
ARC
8
front_labelLayer
10
48.4193147
20
104.8214812
40
7.8153256
50
76.5183162
51
83.0217161
0
ARC
8
front_labelLayer
10
48.738401
20
107.3875392
40
5.2295119
50
83.0761044
51
89.7926726
0
ARC
8
front_labelLayer
10
48.7279016
20
109.3378118
40
3.2793371
50
89.4859292
51
103.4197321
0
ARC
8
front_labelLayer
10
48.4322458
20
110.4736937
40
2.105989
50
102.7677377
51
144.3380335
0
ARC
8
front_labelLayer
10
49.0278678
20
110.0904647
40
2.8135666
50
145.0688509
51
162.1801704
0
ARC
8
front_labelLayer
10
51.0700364
20
109.4033744
40
4.9681114
50
161.8437374
51
171.7847121
0
ARC
8
front_labelLayer
10
54.4008787
20
108.9030906
40
8.3362821
50
171.6527779
51
178.4383662
0
ARC
8
front_labelLayer
10
57.5421632
20
108.7691267
40
11.4801525
50
178.1972722
51
180.0232019
0
LINE
8
front_labelLayer
10
62.3217773
20
107.8416262
11
61.9848633
21
105.5857669
0
LINE
8
front_labelLayer
10
55.5102539
20
100.2830325
11
55.5102539
21
91.6697512
0
LINE
8
front_labelLayer
10
55.5102539
20
91.6697512
11
53.0786133
21
91.6697512
0
LINE
8
front_labelLayer
10
53.0786133
20
91.6697512
11
53.0786133
21
107.7244387
0
LINE
8
front_labelLayer
10
53.0786133
20
107.7244387
11
55.0854492
21
107.7244387
0
LINE
8
front_labelLayer
10
55.0854492
20
107.7244387
11
55.3637695
21
104.7508059
0
LINE
8
front_labelLayer
10
55.3637695
20
104.7508059
11
55.480957
21
104.7508059
0
ARC
8
front_labelLayer
10
60.427793
20
96.8541646
40
11.1632708
50
84.9922975
51
90.128113
0
ARC
8
front_labelLayer
10
60.6958767
20
99.8577801
40
8.1477206
50
78.48919
51
85.0265853
0
ARC
8
front_labelLayer
10
59.6553114
20
95.1250236
40
10.7169941
50
77.445399
51
81.6360133
0
ARC
8
front_labelLayer
10
60.1222463
20
98.3435151
40
7.4648162
50
81.5884485
51
87.1916399
0
ARC
8
front_labelLayer
10
60.2236689
20
100.102333
40
5.7031614
50
87.3436069
51
89.9660252
0
ARC
8
front_labelLayer
10
60.2001032
20
101.5922658
40
4.2133138
50
89.633544
51
137.0880795
0
ARC
8
front_labelLayer
10
61.2341446
20
100.4294623
40
5.7642587
50
135.6209228
51
138.8377267
0
ARC
8
front_labelLayer
10
61.0826104
20
100.5773725
40
5.552835
50
138.9575746
51
174.542222
0
ARC
8
front_labelLayer
10
62.8910765
20
100.2944024
40
7.3808313
50
173.6907685
51
180.0882625
0
ARC
8
front_labelLayer
10
62.6353681
20
100.7200418
40
8.2117391
50
139.4139341
51
150.6032786
0
ARC
8
front_labelLayer
10
61.1629915
20
101.9817138
40
6.2727422
50
124.2321445
51
139.4161095
0
ARC
8
front_labelLayer
10
60.3757309
20
103.1700807
40
4.8474026
50
89.6796658
51
124.4405647
0
ARC
8
front_labelLayer
10
66.621996
20
99.627068
40
12.5604183
50
349.1761864
51
0.3862596
0
ARC
8
front_labelLayer
10
70.8507937
20
98.7840474
40
8.2486133
50
330.2507034
51
349.4116504
0
ARC
8
front_labelLayer
10
72.1522062
20
98.1076236
40
6.7833274
50
318.1439661
51
329.756624
0
ARC
8
front_labelLayer
10
72.3870871
20
97.9193889
40
6.4828019
50
278.8959164
51
317.9979139
0
ARC
8
front_labelLayer
10
71.781874
20
100.819017
40
9.4423243
50
269.7502939
51
279.803326
0
ARC
8
front_labelLayer
10
71.6837215
20
99.1852529
40
7.8086785
50
253.5436906
51
270.4182464
0
ARC
8
front_labelLayer
10
71.4237864
20
98.1797586
40
6.7708312
50
238.8115492
51
253.2428307
0
ARC
8
front_labelLayer
10
71.3398968
20
98.0110569
40
6.5830881
50
207.7947022
51
238.6757923
0
ARC
8
front_labelLayer
10
72.5436934
20
98.7483235
40
7.9923033
50
205.6560385
51
208.4461342
0
ARC
8
front_labelLayer
10
73.4708582
20
99.1346357
40
8.9954763
50
188.9102484
51
205.317141
0
ARC
8
front_labelLayer
10
76.5955811
20
99.6638621
40
12.1645231
50
179.7744751
51
189.0932848
0
ARC
8
front_labelLayer
10
77.0565155
20
99.7972591
40
12.6256528
50
169.244298
51
180.388077
0
ARC
8
front_labelLayer
10
72.7689471
20
100.6447547
40
8.2553117
50
150.7111559
51
169.469537
0
ARC
8
front_labelLayer
10
71.4002136
20
101.3476493
40
6.717924
50
138.1759436
51
150.2287448
0
ARC
8
front_labelLayer
10
71.172538
20
101.522363
40
6.4317904
50
99.1759344
51
137.983272
0
ARC
8
front_labelLayer
10
71.7991902
20
98.5732697
40
9.4442406
50
89.7326285
51
100.0759812
0
ARC
8
front_labelLayer
10
71.924438
20
99.8468852
40
8.1709255
50
73.5222706
51
90.5692298
0
ARC
8
front_labelLayer
10
72.4036128
20
101.5878554
40
6.365635
50
41.1445706
51
73.2133776
0
ARC
8
front_labelLayer
10
71.4889024
20
100.8016756
40
7.5717415
50
13.501441
51
41.0703389
0
ARC
8
front_labelLayer
10
67.9549375
20
99.8768843
40
11.2241976
50
1.127719
51
13.880004
0
ARC
8
front_labelLayer
10
64.9104746
20
99.7137536
40
14.2716544
50
359.99193
51
1.5419575
0
ARC
8
front_labelLayer
10
79.2643048
20
99.6485503
40
12.3137834
50
179.7059623
51
187.9160759
0
ARC
8
front_labelLayer
10
74.7479841
20
98.9997855
40
7.7511771
50
187.7639223
51
200.0976943
0
ARC
8
front_labelLayer
10
72.2599769
20
98.0881762
40
5.1014207
50
200.0846
51
216.9131549
0
ARC
8
front_labelLayer
10
71.3514368
20
97.4394371
40
3.9854566
50
217.3009623
51
261.7099028
0
ARC
8
front_labelLayer
10
71.7732099
20
99.4520959
40
6.039237
50
260.5033161
51
270.2476795
0
ARC
8
front_labelLayer
10
71.8537134
20
99.0607312
40
5.6480778
50
269.4481715
51
284.7255742
0
ARC
8
front_labelLayer
10
72.300839
20
97.4024887
40
3.930662
50
284.5662324
51
322.6333807
0
ARC
8
front_labelLayer
10
71.2554356
20
98.1577449
40
5.2200023
50
323.0089348
51
342.6390479
0
ARC
8
front_labelLayer
10
68.2653675
20
99.1349851
40
8.3655519
50
342.36157
51
353.7537588
0
ARC
8
front_labelLayer
10
63.8540039
20
99.6667174
40
12.808673
50
353.5363071
51
0.2014108
0
ARC
8
front_labelLayer
10
64.5299115
20
99.7736702
40
12.1328442
50
359.7075578
51
7.8972726
0
ARC
8
front_labelLayer
10
68.9732808
20
100.4106674
40
7.6441213
50
7.7440016
51
20.0690143
0
ARC
8
front_labelLayer
10
71.4493205
20
101.3192802
40
5.0066362
50
20.025706
51
37.4350462
0
ARC
8
front_labelLayer
10
72.2708503
20
101.9022256
40
4.0001225
50
37.9577585
51
80.4006217
0
ARC
8
front_labelLayer
10
71.8040031
20
99.8192086
40
6.1328634
50
79.3453306
51
90.3174901
0
ARC
8
front_labelLayer
10
71.7175584
20
100.1651965
40
5.7870191
50
89.4805888
51
103.8805052
0
ARC
8
front_labelLayer
10
71.2312992
20
102.0168684
40
3.872867
50
103.4685195
51
142.3118969
0
ARC
8
front_labelLayer
10
72.1766263
20
101.3520458
40
5.0276671
50
142.9025678
51
162.3749549
0
ARC
8
front_labelLayer
10
75.1553618
20
100.3593917
40
8.1672574
50
162.065324
51
173.1674838
0
ARC
8
front_labelLayer
10
79.7999475
20
99.7670001
40
12.8493827
50
173.0086085
51
180.2463918
0
LINE
8
front_labelLayer
10
96.8627929
20
91.6697512
11
94.4311523
21
91.6697512
0
LINE
8
front_labelLayer
10
94.4311523
20
91.6697512
11
94.4311523
21
102.0554934
0
LINE
8
front_labelLayer
10
85.8764648
20
100.0926028
11
85.8764648
21
91.6697512
0
LINE
8
front_labelLayer
10
85.8764648
20
91.6697512
11
83.4448242
21
91.6697512
0
LINE
8
front_labelLayer
10
83.4448242
20
91.6697512
11
83.4448242
21
107.7244387
0
LINE
8
front_labelLayer
10
83.4448242
20
107.7244387
11
85.4223633
21
107.7244387
0
LINE
8
front_labelLayer
10
85.4223633
20
107.7244387
11
85.8178711
21
105.5271731
0
LINE
8
front_labelLayer
10
85.8178711
20
105.5271731
11
85.9350586
21
105.5271731
0
LINE
8
front_labelLayer
10
96.8627929
20
102.1433841
11
96.8627929
21
91.6697512
0
ARC
8
front_labelLayer
10
87.5576337
20
102.0949122
40
6.8736316
50
359.6714198
51
8.6877384
0
ARC
8
front_labelLayer
10
90.1051846
20
102.4989374
40
4.294308
50
8.4931567
51
22.657975
0
ARC
8
front_labelLayer
10
91.3995312
20
103.0368268
40
2.892648
50
22.7024355
51
42.3419491
0
ARC
8
front_labelLayer
10
91.5450231
20
103.1022737
40
2.7414764
50
43.3790936
51
71.538618
0
ARC
8
front_labelLayer
10
91.0009632
20
101.5820318
40
4.3559056
50
71.0827998
51
84.3691075
0
ARC
8
front_labelLayer
10
90.7567443
20
99.5056179
40
6.4463824
50
84.0197712
51
90.1510809
0
ARC
8
front_labelLayer
10
90.6875085
20
98.5927037
40
7.3594595
50
89.5933104
51
100.3717865
0
ARC
8
front_labelLayer
10
90.1674214
20
101.3214335
40
4.5817277
50
100.1176438
51
118.1602673
0
ARC
8
front_labelLayer
10
89.6433034
20
102.3491835
40
3.4283566
50
118.5439386
51
139.1926991
0
ARC
8
front_labelLayer
10
90.1003042
20
102.0425295
40
3.9752266
50
140.1519108
51
160.3146504
0
ARC
8
front_labelLayer
10
92.8599588
20
101.0088775
40
6.9219259
50
159.9534221
51
171.3801266
0
ARC
8
front_labelLayer
10
97.3679755
20
100.2842286
40
11.4877037
50
171.1765842
51
178.3217497
0
ARC
8
front_labelLayer
10
101.4541066
20
100.0990404
40
15.577643
50
178.0810591
51
180.0236779
0
ARC
8
front_labelLayer
10
90.0947511
20
102.8927016
40
4.923767
50
116.9442926
51
147.652561
0
ARC
8
front_labelLayer
10
90.6075066
20
102.0350131
40
5.921089
50
115.8073028
51
117.6067199
0
ARC
8
front_labelLayer
10
90.8692585
20
101.4246001
40
6.5846426
50
94.3226723
51
115.5454319
0
ARC
8
front_labelLayer
10
91.0268595
20
100.0553806
40
7.9620291
50
89.9578644
51
94.7109066
0
ARC
8
front_labelLayer
10
91.0920011
20
98.4170513
40
9.6005393
50
80.5585384
51
90.3538216
0
ARC
8
front_labelLayer
10
91.6919779
20
101.8923423
40
6.0739445
50
65.1094078
51
80.7638315
0
ARC
8
front_labelLayer
10
92.393319
20
103.445787
40
4.3696448
50
46.558443
51
64.8782536
0
ARC
8
front_labelLayer
10
92.4494454
20
103.6076
40
4.2141527
50
19.3848877
51
45.5997034
0
ARC
8
front_labelLayer
10
90.011425
20
102.6928129
40
6.8178031
50
6.963369
51
19.8363382
0
ARC
8
front_labelLayer
10
86.2512359
20
102.1872521
40
10.6116475
50
359.7631412
51
7.211556
0
LINE
8
front_labelLayer
10
109.2407226
20
93.6765872
11
109.2407226
21
91.8162356
0
LINE
8
front_labelLayer
10
102.0336914
20
96.2840091
11
102.0336914
21
105.8347903
0
LINE
8
front_labelLayer
10
102.0336914
20
105.8347903
11
99.7338867
21
105.8347903
0
LINE
8
front_labelLayer
10
99.7338867
20
105.8347903
11
99.7338867
21
107.0066653
0
LINE
8
front_labelLayer
10
99.7338867
20
107.0066653
11
102.0336914
21
108.0174075
0
LINE
8
front_labelLayer
10
102.0336914
20
108.0174075
11
103.059082
21
111.4451419
0
LINE
8
front_labelLayer
10
103.059082
20
111.4451419
11
104.465332
21
111.4451419
0
LINE
8
front_labelLayer
10
104.465332
20
111.4451419
11
104.465332
21
107.7244387
0
LINE
8
front_labelLayer
10
104.465332
20
107.7244387
11
109.1235351
21
107.7244387
0
LINE
8
front_labelLayer
10
109.1235351
20
107.7244387
11
109.1235351
21
105.8347903
0
LINE
8
front_labelLayer
10
109.1235351
20
105.8347903
11
104.465332
21
105.8347903
0
LINE
8
front_labelLayer
10
104.465332
20
105.8347903
11
104.465332
21
96.3865481
0
ARC
8
front_labelLayer
10
107.0601328
20
101.3694601
40
7.985859
50
269.8803567
51
278.3028147
0
ARC
8
front_labelLayer
10
107.1362771
20
100.7474561
40
7.359393
50
278.4155018
51
279.0081532
0
ARC
8
front_labelLayer
10
106.2400968
20
106.472625
40
13.1542724
50
278.9589712
51
280.5104067
0
ARC
8
front_labelLayer
10
107.0940828
20
101.8904474
40
8.4931972
50
280.4847462
51
282.6268366
0
ARC
8
front_labelLayer
10
107.842974
20
98.5633456
40
5.0828564
50
282.5876837
51
285.5794974
0
ARC
8
front_labelLayer
10
108.2208649
20
97.1739922
40
3.643069
50
285.7232314
51
286.2569026
0
ARC
8
front_labelLayer
10
108.2183901
20
93.9785283
40
2.3917929
50
287.9888546
51
295.3047972
0
ARC
8
front_labelLayer
10
107.6414946
20
95.7239199
40
4.2300386
50
283.3069859
51
288.1197273
0
ARC
8
front_labelLayer
10
107.0321103
20
98.2658609
40
6.8439962
50
280.0070073
51
283.3735269
0
ARC
8
front_labelLayer
10
106.624197
20
100.4796269
40
9.0949815
50
279.1863331
51
280.1142569
0
ARC
8
front_labelLayer
10
106.3740612
20
101.9023708
40
10.5394295
50
275.5260473
51
279.2939327
0
ARC
8
front_labelLayer
10
106.6561152
20
98.9563551
40
7.5799446
50
270.8932554
51
275.5483689
0
ARC
8
front_labelLayer
10
106.6915671
20
97.6083192
40
6.2315366
50
270.0030105
51
270.7605581
0
ARC
8
front_labelLayer
10
106.5937698
20
97.7271129
40
6.3510885
50
253.7847975
51
270.8852589
0
ARC
8
front_labelLayer
10
105.8413353
20
95.1610236
40
3.6769696
50
190.3817649
51
253.8772393
0
ARC
8
front_labelLayer
10
109.6764845
20
96.1979804
40
7.6432773
50
179.3550956
51
192.8477622
0
ARC
8
front_labelLayer
10
109.36174
20
96.355923
40
4.8965037
50
179.6416421
51
189.750605
0
ARC
8
front_labelLayer
10
107.633186
20
96.0476125
40
3.1407243
50
189.5479448
51
205.7873695
0
ARC
8
front_labelLayer
10
106.9228214
20
95.7200414
40
2.3586394
50
206.129448
51
221.4084032
0
ARC
8
front_labelLayer
10
106.8431702
20
95.6596033
40
2.258937
50
221.5949217
51
262.3505132
0
ARC
8
front_labelLayer
10
107.0326048
20
96.6337452
40
3.2501449
50
261.3266146
51
270.1913113
0
LINE
8
left_outsideCutPath
10
157
20
203
11
157
21
172.31025
0
LINE
8
left_outsideCutPath
10
157
20
172.31025
11
153
21
172.31025
0
LINE
8
left_outsideCutPath
10
153
20
172.31025
11
153
21
144.58615
0
LINE
8
left_outsideCutPath
10
153
20
144.58615
11
157
21
144.58615
0
LINE
8
left_outsideCutPath
10
157
20
144.58615
11
157
21
116.86205
0
LINE
8
left_outsideCutPath
10
157
20
116.86205
11
153
21
116.86205
0
LINE
8
left_outsideCutPath
10
153
20
116.86205
11
153
21
89.13795
0
LINE
8
left_outsideCutPath
10
153
20
89.13795
11
157
21
89.13795
0
LINE
8
left_outsideCutPath
10
157
20
89.13795
11
157
21
61.41385
0
LINE
8
left_outsideCutPath
10
157
20
61.41385
11
153
21
61.41385
0
LINE
8
left_outsideCutPath
10
153
20
61.41385
11
153
21
33.68975
0
LINE
8
left_outsideCutPath
10
153
20
33.68975
11
157
21
33.68975
0
LINE
8
left_outsideCutPath
10
157
20
33.68975
11
157
21
3
0
LINE
8
left_outsideCutPath
10
157
20
3
11
186.41385
21
3
0
LINE
8
left_outsideCutPath
10
186.41385
20
3
11
186.41385
21
7
0
LINE
8
left_outsideCutPath
10
186.41385
20
7
11
214.13795
21
7
0
LINE
8
left_outsideCutPath
10
214.13795
20
7
11
214.13795
21
3
0
LINE
8
left_outsideCutPath
10
214.13795
20
3
11
241.86205
21
3
0
LINE
8
left_outsideCutPath
10
241.86205
20
3
11
241.86205
21
7
0
LINE
8
left_outsideCutPath
10
241.86205
20
7
11
269.58615
21
7
0
LINE
8
left_outsideCutPath
10
269.58615
20
7
11
269.58615
21
3
0
LINE
8
left_outsideCutPath
10
269.58615
20
3
11
297.31025
21
3
0
LINE
8
left_outsideCutPath
10
297.31025
20
3
11
299
21
3
0
LINE
8
left_outsideCutPath
10
299
20
3
11
299
21
33.68975
0
LINE
8
left_outsideCutPath
10
299
20
33.68975
11
303
21
33.68975
0
LINE
8
left_outsideCutPath
10
303
20
33.68975
11
303
21
61.41385
0
LINE
8
left_outsideCutPath
10
303
20
61.41385
11
299
21
61.41385
0
LINE
8
left_outsideCutPath
10
299
20
61.41385
11
299
21
89.13795
0
LINE
8
left_outsideCutPath
10
299
20
89.13795
11
303
21
89.13795
0
LINE
8
left_outsideCutPath
10
303
20
89.13795
11
303
21
116.86205
0
LINE
8
left_outsideCutPath
10
303
20
116.86205
11
299
21
116.86205
0
LINE
8
left_outsideCutPath
10
299
20
116.86205
11
299
21
144.58615
0
LINE
8
left_outsideCutPath
10
299
20
144.58615
11
303
21
144.58615
0
LINE
8
left_outsideCutPath
10
303
20
144.58615
11
303
21
172.31025
0
LINE
8
left_outsideCutPath
10
303
20
172.31025
11
299
21
172.31025
0
LINE
8
left_outsideCutPath
10
299
20
172.31025
11
299
21
203
0
LINE
8
left_outsideCutPath
10
299
20
203
11
269.58615
21
203
0
LINE
8
left_outsideCutPath
10
269.58615
20
203
11
269.58615
21
199
0
LINE
8
left_outsideCutPath
10
269.58615
20
199
11
241.86205
21
199
0
LINE
8
left_outsideCutPath
10
241.86205
20
199
11
241.86205
21
203
0
LINE
8
left_outsideCutPath
10
241.86205
20
203
11
214.13795
21
203
0
LINE
8
left_outsideCutPath
10
214.13795
20
203
11
214.13795
21
199
0
LINE
8
left_outsideCutPath
10
214.13795
20
199
11
186.41385
21
199
0
LINE
8
left_outsideCutPath
10
186.41385
20
199
11
186.41385
21
203
0
LINE
8
left_outsideCutPath
10
186.41385
20
203
11
158.68975
21
203
0
LINE
8
left_outsideCutPath
10
158.68975
20
203
11
157
21
203
0
LINE
8
left_labelLayer
10
209.4477539
20
114.46272
11
209.4477539
21
91.6697512
0
LINE
8
left_labelLayer
10
209.4477539
20
91.6697512
11
207.0161133
21
91.6697512
0
LINE
8
left_labelLayer
10
207.0161133
20
91.6697512
11
207.0161133
21
114.46272
0
LINE
8
left_labelLayer
10
207.0161133
20
114.46272
11
209.4477539
21
114.46272
0
LINE
8
left_labelLayer
10
227.2895508
20
100.7957278
11
227.2895508
21
99.2576419
0
LINE
8
left_labelLayer
10
227.2895508
20
99.2576419
11
216.2299804
21
99.2576419
0
LINE
8
left_labelLayer
10
226.6010742
20
94.5847903
11
226.6010742
21
92.4168216
0
LINE
8
left_labelLayer
10
216.2885742
20
101.2351809
11
224.6821289
21
101.2351809
0
ARC
8
left_labelLayer
10
221.3062764
20
100.8256837
40
9.4492395
50
256.0087838
51
270.4848098
0
ARC
8
left_labelLayer
10
220.6181849
20
98.1543768
40
6.6908565
50
223.546576
51
256.1956991
0
ARC
8
left_labelLayer
10
220.9977754
20
98.430268
40
7.1563275
50
194.0877333
51
223.0538094
0
ARC
8
left_labelLayer
10
224.4758256
20
99.381387
40
10.7615497
50
181.3574525
51
194.491998
0
ARC
8
left_labelLayer
10
227.6001945
20
99.5625292
40
13.8897457
50
179.9887392
51
181.7991486
0
ARC
8
left_labelLayer
10
226.4786462
20
99.6509113
40
12.7684843
50
168.9539251
51
180.3843488
0
ARC
8
left_labelLayer
10
222.3085268
20
100.5000186
40
8.5130047
50
149.4071032
51
169.1853727
0
ARC
8
left_labelLayer
10
221.146653
20
101.1139
40
7.2007069
50
140.1055969
51
148.9067178
0
ARC
8
left_labelLayer
10
220.4328419
20
101.7720027
40
6.2311389
50
92.476264
51
140.5386368
0
ARC
8
left_labelLayer
10
220.7509161
20
99.4213985
40
8.5960105
50
89.9637969
51
93.9175951
0
ARC
8
left_labelLayer
10
220.826815
20
100.6094631
40
7.4082795
50
74.212591
51
90.5450045
0
ARC
8
left_labelLayer
10
221.2908188
20
102.3190539
40
5.6369681
50
41.2064692
51
74.0232722
0
ARC
8
left_labelLayer
10
220.4120872
20
101.5585761
40
6.7990601
50
11.599423
51
41.1496073
0
ARC
8
left_labelLayer
10
217.392786
20
100.8622671
40
9.8969885
50
359.6147866
51
12.0336378
0
ARC
8
left_labelLayer
10
225.9877587
20
99.4526183
40
9.759726
50
181.1447113
51
190.8006954
0
ARC
8
left_labelLayer
10
222.5446225
20
98.7735368
40
6.2503678
50
190.6005738
51
206.0275274
0
ARC
8
left_labelLayer
10
221.0212717
20
98.0533642
40
4.5655461
50
206.2950313
51
222.5557916
0
ARC
8
left_labelLayer
10
220.8862868
20
97.9826887
40
4.4184894
50
223.0645109
51
258.1401388
0
ARC
8
left_labelLayer
10
221.4236512
20
100.1953422
40
6.6947264
50
257.5311851
51
270.4319429
0
ARC
8
left_labelLayer
10
221.4296493
20
106.343567
40
12.842838
50
270.1984024
51
292.2090375
0
ARC
8
left_labelLayer
10
220.8128748
20
108.1148639
40
14.7161865
50
291.825496
51
293.1613603
0
ARC
8
left_labelLayer
10
220.7833695
20
105.8054676
40
14.5979975
50
287.9023072
51
293.4861629
0
ARC
8
left_labelLayer
10
221.8423169
20
102.5382512
40
11.1634583
50
281.9935931
51
287.885116
0
ARC
8
left_labelLayer
10
222.0989673
20
101.6158344
40
10.2080172
50
275.90546
51
281.6603718
0
ARC
8
left_labelLayer
10
221.5852135
20
106.4111955
40
15.0307986
50
271.9119532
51
275.9727222
0
ARC
8
left_labelLayer
10
221.3976684
20
111.1880206
40
19.8112414
50
269.9669204
51
271.9931289
0
ARC
8
left_labelLayer
10
220.6803883
20
101.1881736
40
4.7933282
50
89.4422237
51
106.208958
0
ARC
8
left_labelLayer
10
220.3920183
20
102.239618
40
3.7032197
50
106.4657019
51
137.9176374
0
ARC
8
left_labelLayer
10
221.2187894
20
101.5135751
40
4.8034513
50
138.0994739
51
160.5866272
0
ARC
8
left_labelLayer
10
223.3439955
20
100.7317477
40
7.0677617
50
160.3353367
51
172.531528
0
ARC
8
left_labelLayer
10
225.4363473
20
100.3964858
40
9.1861397
50
172.1544709
51
174.7615969
0
ARC
8
left_labelLayer
10
216.3960744
20
101.282251
40
8.2861882
50
359.6745271
51
8.9224384
0
ARC
8
left_labelLayer
10
219.3569305
20
101.764675
40
5.2863666
50
8.7342229
51
23.2771853
0
ARC
8
left_labelLayer
10
220.7625553
20
102.3547188
40
3.762005
50
23.4821528
51
39.7071991
0
ARC
8
left_labelLayer
10
221.1078293
20
102.6130953
40
3.3313828
50
40.0822945
51
80.6243228
0
ARC
8
left_labelLayer
10
220.7524325
20
100.9839685
40
4.9973707
50
79.646836
51
90.2910075
0
LINE
8
left_labelLayer
10
238.6713867
20
107.7244387
11
238.6713867
21
105.8347903
0
LINE
8
left_labelLayer
10
238.6713867
20
105.8347903
11
234.5844726
21
105.8347903
0
LINE
8
left_labelLayer
10
234.5844726
20
105.8347903
11
234.5844726
21
91.6697512
0
LINE
8
left_labelLayer
10
234.5844726
20
91.6697512
11
232.152832
21
91.6697512
0
LINE
8
left_labelLayer
10
232.152832
20
91.6697512
11
232.152832
21
105.8347903
0
LINE
8
left_labelLayer
10
232.152832
20
105.8347903
11
229.2817383
21
105.8347903
0
LINE
8
left_labelLayer
10
229.2817383
20
105.8347903
11
229.2817383
21
106.9334231
0
LINE
8
left_labelLayer
10
229.2817383
20
106.9334231
11
232.152832
21
107.8123294
0
LINE
8
left_labelLayer
10
232.152832
20
107.8123294
11
232.152832
21
108.7058841
0
LINE
8
left_labelLayer
10
240.3120117
20
114.1111575
11
239.6821289
21
112.1629153
0
LINE
8
left_labelLayer
10
234.5844726
20
108.7644778
11
234.5844726
21
107.7244387
0
LINE
8
left_labelLayer
10
234.5844726
20
107.7244387
11
238.6713867
21
107.7244387
0
ARC
8
left_labelLayer
10
242.0074259
20
108.8191767
40
9.8552451
50
167.5775976
51
180.6586678
0
ARC
8
left_labelLayer
10
237.3731633
20
109.8996182
40
5.0973901
50
141.7433814
51
168.2322083
0
ARC
8
left_labelLayer
10
236.6186131
20
110.2934369
40
4.2639634
50
98.2551487
51
139.6203318
0
ARC
8
left_labelLayer
10
237.2811221
20
107.2328878
40
7.3910878
50
89.6696978
51
99.9314191
0
ARC
8
left_labelLayer
10
237.2829705
20
106.7935187
40
7.8304402
50
81.5640965
51
89.7017554
0
ARC
8
left_labelLayer
10
236.7324738
20
102.9529565
40
11.7102243
50
75.9739888
51
81.6564776
0
ARC
8
left_labelLayer
10
235.7877798
20
99.0345687
40
15.7407816
50
73.2963794
51
76.094621
0
ARC
8
left_labelLayer
10
236.025682
20
100.9353179
40
11.8079866
50
71.9613311
51
76.5918215
0
ARC
8
left_labelLayer
10
236.9417757
20
104.8214812
40
7.8153256
50
76.5183162
51
83.0217161
0
ARC
8
left_labelLayer
10
237.260862
20
107.3875392
40
5.2295119
50
83.0761044
51
89.7926726
0
ARC
8
left_labelLayer
10
237.2503626
20
109.3378118
40
3.2793371
50
89.4859292
51
103.4197321
0
ARC
8
left_labelLayer
10
236.9547068
20
110.4736937
40
2.105989
50
102.7677377
51
144.3380335
0
ARC
8
left_labelLayer
10
237.5503287
20
110.0904647
40
2.8135666
50
145.0688509
51
162.1801704
0
ARC
8
left_labelLayer
10
239.5924974
20
109.4033744
40
4.9681114
50
161.8437374
51
171.7847121
0
ARC
8
left_labelLayer
10
242.9233397
20
108.9030906
40
8.3362821
50
171.6527779
51
178.4383662
0
ARC
8
left_labelLayer
10
246.0646242
20
108.7691267
40
11.4801525
50
178.1972722
51
180.0232019
0
LINE
8
left_labelLayer
10
248.9838867
20
93.6765872
11
248.9838867
21
91.8162356
0
LINE
8
left_labelLayer
10
241.7768554
20
96.2840091
11
241.7768554
21
105.8347903
0
LINE
8
left_labelLayer
10
241.7768554
20
105.8347903
11
239.4770508
21
105.8347903
0
LINE
8
left_labelLayer
10
239.4770508
20
105.8347903
11
239.4770508
21
107.0066653
0
LINE
8
left_labelLayer
10
239.4770508
20
107.0066653
11
241.7768554
21
108.0174075
0
LINE
8
left_labelLayer
10
241.7768554
20
108.0174075
11
242.8022461
21
111.4451419
0
LINE
8
left_labelLayer
10
242.8022461
20
111.4451419
11
244.2084961
21
111.4451419
0
LINE
8
left_labelLayer
10
244.2084961
20
111.4451419
11
244.2084961
21
107.7244387
0
LINE
8
left_labelLayer
10
244.2084961
20
107.7244387
11
248.8666992
21
107.7244387
0
LINE
8
left_labelLayer
10
248.8666992
20
107.7244387
11
248.8666992
21
105.8347903
0
LINE
8
left_labelLayer
10
248.8666992
20
105.8347903
11
244.2084961
21
105.8347903
0
LINE
8
left_labelLayer
10
244.2084961
20
105.8347903
11
244.2084961
21
96.3865481
0
ARC
8
left_labelLayer
10
246.8032969
20
101.3694601
40
7.985859
50
269.8803567
51
278.3028147
0
ARC
8
left_labelLayer
10
246.8794412
20
100.7474561
40
7.359393
50
278.4155018
51
279.0081532
0
ARC
8
left_labelLayer
10
245.9832609
20
106.472625
40
13.1542724
50
278.9589712
51
280.5104067
0
ARC
8
left_labelLayer
10
246.8372469
20
101.8904474
40
8.4931972
50
280.4847462
51
282.6268366
0
ARC
8
left_labelLayer
10
247.5861381
20
98.5633456
40
5.0828564
50
282.5876837
51
285.5794974
0
ARC
8
left_labelLayer
10
247.9640289
20
97.1739922
40
3.643069
50
285.7232314
51
286.2569026
0
ARC
8
left_labelLayer
10
247.9615541
20
93.9785283
40
2.3917929
50
287.9888546
51
295.3047972
0
ARC
8
left_labelLayer
10
247.3846587
20
95.7239199
40
4.2300386
50
283.3069859
51
288.1197273
0
ARC
8
left_labelLayer
10
246.7752744
20
98.2658609
40
6.8439962
50
280.0070073
51
283.3735269
0
ARC
8
left_labelLayer
10
246.367361
20
100.4796269
40
9.0949815
50
279.1863331
51
280.1142569
0
ARC
8
left_labelLayer
10
246.1172252
20
101.9023708
40
10.5394295
50
275.5260473
51
279.2939327
0
ARC
8
left_labelLayer
10
246.3992792
20
98.9563551
40
7.5799446
50
270.8932554
51
275.5483689
0
ARC
8
left_labelLayer
10
246.4347311
20
97.6083192
40
6.2315366
50
270.0030105
51
270.7605581
0
ARC
8
left_labelLayer
10
246.3369338
20
97.7271129
40
6.3510885
50
253.7847975
51
270.8852589
0
ARC
8
left_labelLayer
10
245.5844993
20
95.1610236
40
3.6769696
50
190.3817649
51
253.8772393
0
ARC
8
left_labelLayer
10
249.4196486
20
96.1979804
40
7.6432773
50
179.3550956
51
192.8477622
0
ARC
8
left_labelLayer
10
249.104904
20
96.355923
40
4.8965037
50
179.6416421
51
189.750605
0
ARC
8
left_labelLayer
10
247.3763501
20
96.0476125
40
3.1407243
50
189.5479448
51
205.7873695
0
ARC
8
left_labelLayer
10
246.6659854
20
95.7200414
40
2.3586394
50
206.129448
51
221.4084032
0
ARC
8
left_labelLayer
10
246.5863343
20
95.6596033
40
2.258937
50
221.5949217
51
262.3505132
0
ARC
8
left_labelLayer
10
246.7757688
20
96.6337452
40
3.2501449
50
261.3266146
51
270.1913113
0
LINE
8
top_outsideCutPath
10
310
20
149
11
310
21
119.58615
0
LINE
8
top_outsideCutPath
10
310
20
119.58615
11
306
21
119.58615
0
LINE
8
top_outsideCutPath
10
306
20
119.58615
11
306
21
91.86205
0
LINE
8
top_outsideCutPath
10
306
20
91.86205
11
310
21
91.86205
0
LINE
8
top_outsideCutPath
10
310
20
91.86205
11
310
21
64.13795
0
LINE
8
top_outsideCutPath
10
310
20
64.13795
11
306
21
64.13795
0
LINE
8
top_outsideCutPath
10
306
20
64.13795
11
306
21
36.41385
0
LINE
8
top_outsideCutPath
10
306
20
36.41385
11
310
21
36.41385
0
LINE
8
top_outsideCutPath
10
310
20
36.41385
11
310
21
8.68975
0
LINE
8
top_outsideCutPath
10
310
20
8.68975
11
310
21
7
0
LINE
8
top_outsideCutPath
10
310
20
7
11
339.41385
21
7
0
LINE
8
top_outsideCutPath
10
339.41385
20
7
11
339.41385
21
3
0
LINE
8
top_outsideCutPath
10
339.41385
20
3
11
367.13795
21
3
0
LINE
8
top_outsideCutPath
10
367.13795
20
3
11
367.13795
21
7
0
LINE
8
top_outsideCutPath
10
367.13795
20
7
11
394.86205
21
7
0
LINE
8
top_outsideCutPath
10
394.86205
20
7
11
394.86205
21
3
0
LINE
8
top_outsideCutPath
10
394.86205
20
3
11
422.58615
21
3
0
LINE
8
top_outsideCutPath
10
422.58615
20
3
11
422.58615
21
7
0
LINE
8
top_outsideCutPath
10
422.58615
20
7
11
450.31025
21
7
0
LINE
8
top_outsideCutPath
10
450.31025
20
7
11
452
21
7
0
LINE
8
top_outsideCutPath
10
452
20
7
11
452
21
36.41385
0
LINE
8
top_outsideCutPath
10
452
20
36.41385
11
456
21
36.41385
0
LINE
8
top_outsideCutPath
10
456
20
36.41385
11
456
21
64.13795
0
LINE
8
top_outsideCutPath
10
456
20
64.13795
11
452
21
64.13795
0
LINE
8
top_outsideCutPath
10
452
20
64.13795
11
452
21
91.86205
0
LINE
8
top_outsideCutPath
10
452
20
91.86205
11
456
21
91.86205
0
LINE
8
top_outsideCutPath
10
456
20
91.86205
11
456
21
119.58615
0
LINE
8
top_outsideCutPath
10
456
20
119.58615
11
452
21
119.58615
0
LINE
8
top_outsideCutPath
10
452
20
119.58615
11
452
21
147.31025
0
LINE
8
top_outsideCutPath
10
452
20
147.31025
11
452
21
149
0
LINE
8
top_outsideCutPath
10
452
20
149
11
422.58615
21
149
0
LINE
8
top_outsideCutPath
10
422.58615
20
149
11
422.58615
21
153
0
LINE
8
top_outsideCutPath
10
422.58615
20
153
11
394.86205
21
153
0
LINE
8
top_outsideCutPath
10
394.86205
20
153
11
394.86205
21
149
0
LINE
8
top_outsideCutPath
10
394.86205
20
149
11
367.13795
21
149
0
LINE
8
top_outsideCutPath
10
367.13795
20
149
11
367.13795
21
153
0
LINE
8
top_outsideCutPath
10
367.13795
20
153
11
339.41385
21
153
0
LINE
8
top_outsideCutPath
10
339.41385
20
153
11
339.41385
21
149
0
LINE
8
top_outsideCutPath
10
339.41385
20
149
11
311.68975
21
149
0
LINE
8
top_outsideCutPath
10
311.68975
20
149
11
310
21
149
0
LINE
8
top_labelLayer
10
368.0213603
20
73.7226563
11
368.0213603
21
71.8623047
0
LINE
8
top_labelLayer
10
360.8143291
20
76.3300781
11
360.8143291
21
85.8808594
0
LINE
8
top_labelLayer
10
360.8143291
20
85.8808594
11
358.5145244
21
85.8808594
0
LINE
8
top_labelLayer
10
358.5145244
20
85.8808594
11
358.5145244
21
87.0527344
0
LINE
8
top_labelLayer
10
358.5145244
20
87.0527344
11
360.8143291
21
88.0634766
0
LINE
8
top_labelLayer
10
360.8143291
20
88.0634766
11
361.8397197
21
91.4912109
0
LINE
8
top_labelLayer
10
361.8397197
20
91.4912109
11
363.2459697
21
91.4912109
0
LINE
8
top_labelLayer
10
363.2459697
20
91.4912109
11
363.2459697
21
87.7705078
0
LINE
8
top_labelLayer
10
363.2459697
20
87.7705078
11
367.9041728
21
87.7705078
0
LINE
8
top_labelLayer
10
367.9041728
20
87.7705078
11
367.9041728
21
85.8808594
0
LINE
8
top_labelLayer
10
367.9041728
20
85.8808594
11
363.2459697
21
85.8808594
0
LINE
8
top_labelLayer
10
363.2459697
20
85.8808594
11
363.2459697
21
76.4326172
0
ARC
8
top_labelLayer
10
365.8407705
20
81.4155291
40
7.985859
50
269.8803567
51
278.3028147
0
ARC
8
top_labelLayer
10
365.9169148
20
80.7935251
40
7.359393
50
278.4155018
51
279.0081532
0
ARC
8
top_labelLayer
10
365.0207345
20
86.5186941
40
13.1542724
50
278.9589712
51
280.5104067
0
ARC
8
top_labelLayer
10
365.8747205
20
81.9365165
40
8.4931972
50
280.4847462
51
282.6268366
0
ARC
8
top_labelLayer
10
366.6236117
20
78.6094147
40
5.0828564
50
282.5876837
51
285.5794974
0
ARC
8
top_labelLayer
10
367.0015026
20
77.2200613
40
3.643069
50
285.7232314
51
286.2569026
0
ARC
8
top_labelLayer
10
366.9990277
20
74.0245974
40
2.3917929
50
287.9888546
51
295.3047972
0
ARC
8
top_labelLayer
10
366.4221323
20
75.7699889
40
4.2300386
50
283.3069859
51
288.1197273
0
ARC
8
top_labelLayer
10
365.812748
20
78.31193
40
6.8439962
50
280.0070073
51
283.3735269
0
ARC
8
top_labelLayer
10
365.4048347
20
80.525696
40
9.0949815
50
279.1863331
51
280.1142569
0
ARC
8
top_labelLayer
10
365.1546989
20
81.9484399
40
10.5394295
50
275.5260473
51
279.2939327
0
ARC
8
top_labelLayer
10
365.4367528
20
79.0024241
40
7.5799446
50
270.8932554
51
275.5483689
0
ARC
8
top_labelLayer
10
365.4722048
20
77.6543882
40
6.2315366
50
270.0030105
51
270.7605581
0
ARC
8
top_labelLayer
10
365.3744074
20
77.773182
40
6.3510885
50
253.7847975
51
270.8852589
0
ARC
8
top_labelLayer
10
364.6219729
20
75.2070927
40
3.6769696
50
190.3817649
51
253.8772393
0
ARC
8
top_labelLayer
10
368.4571222
20
76.2440495
40
7.6432773
50
179.3550956
51
192.8477622
0
ARC
8
top_labelLayer
10
368.1423776
20
76.4019921
40
4.8965037
50
179.6416421
51
189.750605
0
ARC
8
top_labelLayer
10
366.4138237
20
76.0936816
40
3.1407243
50
189.5479448
51
205.7873695
0
ARC
8
top_labelLayer
10
365.7034591
20
75.7661104
40
2.3586394
50
206.129448
51
221.4084032
0
ARC
8
top_labelLayer
10
365.6238079
20
75.7056724
40
2.258937
50
221.5949217
51
262.3505132
0
ARC
8
top_labelLayer
10
365.8132424
20
76.6798143
40
3.2501449
50
261.3266146
51
270.1913113
0
ARC
8
top_labelLayer
10
372.5266571
20
79.6731371
40
12.5604183
50
349.1761864
51
0.3862596
0
ARC
8
top_labelLayer
10
376.7554548
20
78.8301165
40
8.2486133
50
330.2507034
51
349.4116504
0
ARC
8
top_labelLayer
10
378.0568673
20
78.1536927
40
6.7833274
50
318.1439661
51
329.756624
0
ARC
8
top_labelLayer
10
378.2917482
20
77.965458
40
6.4828019
50
278.8959164
51
317.9979139
0
ARC
8
top_labelLayer
10
377.6865351
20
80.8650861
40
9.4423243
50
269.7502939
51
279.803326
0
ARC
8
top_labelLayer
10
377.5883826
20
79.231322
40
7.8086785
50
253.5436906
51
270.4182464
0
ARC
8
top_labelLayer
10
377.3284475
20
78.2258277
40
6.7708312
50
238.8115492
51
253.2428307
0
ARC
8
top_labelLayer
10
377.2445579
20
78.057126
40
6.5830881
50
207.7947022
51
238.6757923
0
ARC
8
top_labelLayer
10
378.4483545
20
78.7943926
40
7.9923033
50
205.6560385
51
208.4461342
0
ARC
8
top_labelLayer
10
379.3755193
20
79.1807048
40
8.9954763
50
188.9102484
51
205.317141
0
ARC
8
top_labelLayer
10
382.5002423
20
79.7099312
40
12.1645231
50
179.7744751
51
189.0932848
0
ARC
8
top_labelLayer
10
382.9611766
20
79.8433282
40
12.6256528
50
169.244298
51
180.388077
0
ARC
8
top_labelLayer
10
378.6736082
20
80.6908238
40
8.2553117
50
150.7111559
51
169.469537
0
ARC
8
top_labelLayer
10
377.3048747
20
81.3937184
40
6.717924
50
138.1759436
51
150.2287448
0
ARC
8
top_labelLayer
10
377.0771991
20
81.5684321
40
6.4317904
50
99.1759344
51
137.983272
0
ARC
8
top_labelLayer
10
377.7038513
20
78.6193387
40
9.4442406
50
89.7326285
51
100.0759812
0
ARC
8
top_labelLayer
10
377.8290991
20
79.8929543
40
8.1709255
50
73.5222706
51
90.5692298
0
ARC
8
top_labelLayer
10
378.3082739
20
81.6339245
40
6.365635
50
41.1445706
51
73.2133776
0
ARC
8
top_labelLayer
10
377.3935635
20
80.8477447
40
7.5717415
50
13.501441
51
41.0703389
0
ARC
8
top_labelLayer
10
373.8595987
20
79.9229534
40
11.2241976
50
1.127719
51
13.880004
0
ARC
8
top_labelLayer
10
370.8151358
20
79.7598226
40
14.2716544
50
359.99193
51
1.5419575
0
ARC
8
top_labelLayer
10
385.1689659
20
79.6946194
40
12.3137834
50
179.7059623
51
187.9160759
0
ARC
8
top_labelLayer
10
380.6526452
20
79.0458546
40
7.7511771
50
187.7639223
51
200.0976943
0
ARC
8
top_labelLayer
10
378.164638
20
78.1342453
40
5.1014207
50
200.0846
51
216.9131549
0
ARC
8
top_labelLayer
10
377.2560979
20
77.4855062
40
3.9854566
50
217.3009623
51
261.7099028
0
ARC
8
top_labelLayer
10
377.677871
20
79.498165
40
6.039237
50
260.5033161
51
270.2476795
0
ARC
8
top_labelLayer
10
377.7583746
20
79.1068002
40
5.6480778
50
269.4481715
51
284.7255742
0
ARC
8
top_labelLayer
10
378.2055001
20
77.4485578
40
3.930662
50
284.5662324
51
322.6333807
0
ARC
8
top_labelLayer
10
377.1600968
20
78.2038139
40
5.2200023
50
323.0089348
51
342.6390479
0
ARC
8
top_labelLayer
10
374.1700286
20
79.1810542
40
8.3655519
50
342.36157
51
353.7537588
0
ARC
8
top_labelLayer
10
369.758665
20
79.7127865
40
12.808673
50
353.5363071
51
0.2014108
0
ARC
8
top_labelLayer
10
370.4345726
20
79.8197392
40
12.1328442
50
359.7075578
51
7.8972726
0
ARC
8
top_labelLayer
10
374.8779419
20
80.4567365
40
7.6441213
50
7.7440016
51
20.0690143
0
ARC
8
top_labelLayer
10
377.3539816
20
81.3653493
40
5.0066362
50
20.025706
51
37.4350462
0
ARC
8
top_labelLayer
10
378.1755114
20
81.9482947
40
4.0001225
50
37.9577585
51
80.4006217
0
ARC
8
top_labelLayer
10
377.7086642
20
79.8652776
40
6.1328634
50
79.3453306
51
90.3174901
0
ARC
8
top_labelLayer
10
377.6222195
20
80.2112655
40
5.7870191
50
89.4805888
51
103.8805052
0
ARC
8
top_labelLayer
10
377.1359603
20
82.0629374
40
3.872867
50
103.4685195
51
142.3118969
0
ARC
8
top_labelLayer
10
378.0812874
20
81.3981148
40
5.0276671
50
142.9025678
51
162.3749549
0
ARC
8
top_labelLayer
10
381.0600229
20
80.4054608
40
8.1672574
50
162.065324
51
173.1674838
0
ARC
8
top_labelLayer
10
385.7046086
20
79.8130691
40
12.8493827
50
173.0086085
51
180.2463918
0
LINE
8
top_labelLayer
10
391.7811259
20
73.78125
11
391.6053447
21
73.78125
0
LINE
8
top_labelLayer
10
391.7811259
20
71.1152344
11
391.7811259
21
64.5087891
0
LINE
8
top_labelLayer
10
391.7811259
20
64.5087891
11
389.3494853
21
64.5087891
0
LINE
8
top_labelLayer
10
389.3494853
20
64.5087891
11
389.3494853
21
87.7705078
0
LINE
8
top_labelLayer
10
389.3494853
20
87.7705078
11
391.3270244
21
87.7705078
0
LINE
8
top_labelLayer
10
391.3270244
20
87.7705078
11
391.6639384
21
85.5732422
0
LINE
8
top_labelLayer
10
391.6639384
20
85.5732422
11
391.7811259
21
85.5732422
0
LINE
8
top_labelLayer
10
391.7811259
20
80.2998047
11
391.7811259
21
79.7578125
0
ARC
8
top_labelLayer
10
396.7791821
20
78.79843
40
7.3756924
50
255.7755386
51
270.3185464
0
ARC
8
top_labelLayer
10
396.5686988
20
77.8632749
40
6.4175402
50
245.9801486
51
255.5455754
0
ARC
8
top_labelLayer
10
396.1610186
20
76.9152138
40
5.3856465
50
215.5850231
51
245.8361624
0
ARC
8
top_labelLayer
10
368.7747262
20
70.8962223
40
23.0121821
50
2.9503139
51
7.2020992
0
ARC
8
top_labelLayer
10
372.497853
20
71.1045238
40
19.2832759
50
0.0318239
51
2.9015962
0
ARC
8
top_labelLayer
10
397.1375516
20
81.8114177
40
6.5454274
50
132.3565176
51
144.9195839
0
ARC
8
top_labelLayer
10
396.1348459
20
82.9053363
40
5.0614945
50
115.4006271
51
132.311831
0
ARC
8
top_labelLayer
10
396.5259621
20
81.9532063
40
6.0895992
50
97.7066206
51
114.8821558
0
ARC
8
top_labelLayer
10
396.7991202
20
80.1816773
40
7.8818276
50
89.846847
51
97.947437
0
ARC
8
top_labelLayer
10
396.8954462
20
80.6102491
40
7.4536074
50
74.1923592
51
90.5785153
0
ARC
8
top_labelLayer
10
397.4111952
20
82.4851057
40
5.5091793
50
38.0523374
51
74.0417372
0
ARC
8
top_labelLayer
10
395.9886703
20
81.3948008
40
7.3014098
50
16.3356025
51
37.9090559
0
ARC
8
top_labelLayer
10
392.251666
20
80.2437804
40
11.2114209
50
4.5766581
51
16.6088775
0
ARC
8
top_labelLayer
10
387.6509043
20
79.7853523
40
15.8343472
50
359.9003485
51
4.9018085
0
ARC
8
top_labelLayer
10
389.2281971
20
79.6736992
40
14.2572786
50
350.6562798
51
0.3380286
0
ARC
8
top_labelLayer
10
394.198526
20
78.8282992
40
9.2156793
50
335.8305911
51
350.825491
0
ARC
8
top_labelLayer
10
396.3848681
20
77.8846438
40
6.8347136
50
321.3161505
51
335.5436077
0
ARC
8
top_labelLayer
10
397.2207309
20
77.2035435
40
5.756538
50
274.064006
51
321.4080996
0
ARC
8
top_labelLayer
10
396.831333
20
79.6701238
40
8.2472799
50
269.922576
51
275.5481714
0
ARC
8
top_labelLayer
10
396.4185413
20
78.9917333
40
7.0064926
50
89.590428
51
100.35019
0
ARC
8
top_labelLayer
10
395.9189253
20
81.6164098
40
4.3348077
50
100.0868107
51
118.1918021
0
ARC
8
top_labelLayer
10
395.4071109
20
82.6146134
40
3.2132915
50
118.5569378
51
141.0243398
0
ARC
8
top_labelLayer
10
396.1870225
20
82.0644768
40
4.16611
50
141.8890576
51
160.597296
0
ARC
8
top_labelLayer
10
398.9279231
20
81.0587623
40
7.0855528
50
160.2895769
51
171.2452907
0
ARC
8
top_labelLayer
10
403.4344669
20
80.332163
40
11.6502272
50
171.0868481
51
178.3247469
0
ARC
8
top_labelLayer
10
407.2561791
20
80.150547
40
15.4757729
50
178.0662802
51
179.4473965
0
ARC
8
top_labelLayer
10
407.8588405
20
79.6950333
40
16.0778372
50
179.7762762
51
185.7075238
0
ARC
8
top_labelLayer
10
401.5199216
20
79.0419021
40
9.7054088
50
185.5924934
51
194.205064
0
ARC
8
top_labelLayer
10
397.459273
20
77.9880247
40
5.5103634
50
193.9430518
51
208.0218313
0
ARC
8
top_labelLayer
10
395.8163283
20
77.1522164
40
3.667512
50
208.5536784
51
217.5605297
0
ARC
8
top_labelLayer
10
395.6824626
20
77.0965349
40
3.5276509
50
218.1690464
51
253.8047204
0
ARC
8
top_labelLayer
10
396.3367731
20
79.1138382
40
5.6477781
50
253.1382386
51
266.8483183
0
ARC
8
top_labelLayer
10
396.5202562
20
81.2776364
40
7.8186553
50
266.3775488
51
270.0510292
0
ARC
8
top_labelLayer
10
396.5825885
20
77.5558323
40
4.097222
50
269.2256965
51
292.0430399
0
ARC
8
top_labelLayer
10
396.6378709
20
77.2263771
40
3.7717968
50
293.1429677
51
324.1353923
0
ARC
8
top_labelLayer
10
395.8166072
20
77.9217262
40
4.8454374
50
323.1614856
51
325.0152583
0
ARC
8
top_labelLayer
10
394.9369998
20
78.4671371
40
5.8791005
50
325.5753747
51
344.1504703
0
ARC
8
top_labelLayer
10
391.8947104
20
79.3664712
40
9.0514127
50
343.933616
51
355.1137549
0
ARC
8
top_labelLayer
10
388.011068
20
79.76055
40
12.9546554
50
354.8402181
51
0.1174665
0
ARC
8
top_labelLayer
10
388.6950788
20
79.8490389
40
12.2707737
50
359.710832
51
7.8610487
0
ARC
8
top_labelLayer
10
393.156716
20
80.4850339
40
7.7641035
50
7.7149684
51
19.8859643
0
ARC
8
top_labelLayer
10
395.6105126
20
81.3713547
40
5.155142
50
19.8991481
51
35.8980166
0
ARC
8
top_labelLayer
10
396.7050189
20
82.2002503
40
3.7826225
50
35.4481541
51
85.2266651
0
ARC
8
top_labelLayer
10
396.4763686
20
80.7663777
40
5.231675
50
84.0378935
51
90.0847958
0
LINE
8
back_outsideCutPath
10
0
20
406
11
0
21
375.31025
0
LINE
8
back_outsideCutPath
10
0
20
375.31025
11
4
21
375.31025
0
LINE
8
back_outsideCutPath
10
4
20
375.31025
11
4
21
347.58615
0
LINE
8
back_outsideCutPath
10
4
20
347.58615
11
0
21
347.58615
0
LINE
8
back_outsideCutPath
10
0
20
347.58615
11
0
21
319.86205
0
LINE
8
back_outsideCutPath
10
0
20
319.86205
11
4
21
319.86205
0
LINE
8
back_outsideCutPath
10
4
20
319.86205
11
4
21
292.13795
0
LINE
8
back_outsideCutPath
10
4
20
292.13795
11
0
21
292.13795
0
LINE
8
back_outsideCutPath
10
0
20
292.13795
11
0
21
264.41385
0
LINE
8
back_outsideCutPath
10
0
20
264.41385
11
4
21
264.41385
0
LINE
8
back_outsideCutPath
10
4
20
264.41385
11
4
21
236.68975
0
LINE
8
back_outsideCutPath
10
4
20
236.68975
11
0
21
236.68975
0
LINE
8
back_outsideCutPath
10
0
20
236.68975
11
0
21
206
0
LINE
8
back_outsideCutPath
10
0
20
206
11
33.41385
21
206
0
LINE
8
back_outsideCutPath
10
33.41385
20
206
11
33.41385
21
210
0
LINE
8
back_outsideCutPath
10
33.41385
20
210
11
61.13795
21
210
0
LINE
8
back_outsideCutPath
10
61.13795
20
210
11
61.13795
21
206
0
LINE
8
back_outsideCutPath
10
61.13795
20
206
11
88.86205
21
206
0
LINE
8
back_outsideCutPath
10
88.86205
20
206
11
88.86205
21
210
0
LINE
8
back_outsideCutPath
10
88.86205
20
210
11
116.58615
21
210
0
LINE
8
back_outsideCutPath
10
116.58615
20
210
11
116.58615
21
206
0
LINE
8
back_outsideCutPath
10
116.58615
20
206
11
144.31025
21
206
0
LINE
8
back_outsideCutPath
10
144.31025
20
206
11
150
21
206
0
LINE
8
back_outsideCutPath
10
150
20
206
11
150
21
236.68975
0
LINE
8
back_outsideCutPath
10
150
20
236.68975
11
146
21
236.68975
0
LINE
8
back_outsideCutPath
10
146
20
236.68975
11
146
21
264.41385
0
LINE
8
back_outsideCutPath
10
146
20
264.41385
11
150
21
264.41385
0
LINE
8
back_outsideCutPath
10
150
20
264.41385
11
150
21
292.13795
0
LINE
8
back_outsideCutPath
10
150
20
292.13795
11
146
21
292.13795
0
LINE
8
back_outsideCutPath
10
146
20
292.13795
11
146
21
319.86205
0
LINE
8
back_outsideCutPath
10
146
20
319.86205
11
150
21
319.86205
0
LINE
8
back_outsideCutPath
10
150
20
319.86205
11
150
21
347.58615
0
LINE
8
back_outsideCutPath
10
150
20
347.58615
11
146
21
347.58615
0
LINE
8
back_outsideCutPath
10
146
20
347.58615
11
146
21
375.31025
0
LINE
8
back_outsideCutPath
10
146
20
375.31025
11
150
21
375.31025
0
LINE
8
back_outsideCutPath
10
150
20
375.31025
11
150
21
406
0
LINE
8
back_outsideCutPath
10
150
20
406
11
116.58615
21
406
0
LINE
8
back_outsideCutPath
10
116.58615
20
406
11
116.58615
21
402
0
LINE
8
back_outsideCutPath
10
116.58615
20
402
11
88.86205
21
402
0
LINE
8
back_outsideCutPath
10
88.86205
20
402
11
88.86205
21
406
0
LINE
8
back_outsideCutPath
10
88.86205
20
406
11
61.13795
21
406
0
LINE
8
back_outsideCutPath
10
61.13795
20
406
11
61.13795
21
402
0
LINE
8
back_outsideCutPath
10
61.13795
20
402
11
33.41385
21
402
0
LINE
8
back_outsideCutPath
10
33.41385
20
402
11
33.41385
21
406
0
LINE
8
back_outsideCutPath
10
33.41385
20
406
11
5.68975
21
406
0
LINE
8
back_outsideCutPath
10
5.68975
20
406
11
0
21
406
0
LINE
8
back_labelLayer
10
46.3330078
20
296.8155952
11
46.1572266
21
296.8155952
0
LINE
8
back_labelLayer
10
46.1572266
20
296.8155952
11
45.6445313
21
294.7501655
0
LINE
8
back_labelLayer
10
45.6445313
20
294.7501655
11
43.9013672
21
294.7501655
0
LINE
8
back_labelLayer
10
43.9013672
20
294.7501655
11
43.9013672
21
317.5431342
0
LINE
8
back_labelLayer
10
43.9013672
20
317.5431342
11
46.3330078
21
317.5431342
0
LINE
8
back_labelLayer
10
46.3330078
20
317.5431342
11
46.3330078
21
312.0060249
0
LINE
8
back_labelLayer
10
46.2158203
20
308.6661811
11
46.3330078
21
308.6661811
0
ARC
8
back_labelLayer
10
51.4450162
20
303.6369427
40
7.4319402
50
74.2393366
51
90.5623779
0
ARC
8
back_labelLayer
10
51.9364423
20
305.4397597
40
5.5634447
50
38.5631252
51
74.0670445
0
ARC
8
back_labelLayer
10
50.6717823
20
304.4564132
40
7.1653314
50
16.4709305
51
38.4075242
0
ARC
8
back_labelLayer
10
47.0284874
20
303.3139842
40
10.9832088
50
5.1338484
51
16.7973332
0
ARC
8
back_labelLayer
10
42.4291604
20
302.8254111
40
15.6079845
50
359.877929
51
5.409363
0
ARC
8
back_labelLayer
10
43.7800789
20
302.7080443
40
14.2572786
50
350.6562798
51
0.3380286
0
ARC
8
back_labelLayer
10
48.7504078
20
301.8626444
40
9.2156793
50
335.8305911
51
350.825491
0
ARC
8
back_labelLayer
10
50.9367499
20
300.9189889
40
6.8347136
50
321.3161505
51
335.5436077
0
ARC
8
back_labelLayer
10
51.7726127
20
300.2378887
40
5.756538
50
274.064006
51
321.4080996
0
ARC
8
back_labelLayer
10
51.3832149
20
302.704469
40
8.2472799
50
269.922576
51
275.5481714
0
ARC
8
back_labelLayer
10
51.331064
20
301.8327751
40
7.3756924
50
255.7755386
51
270.3185464
0
ARC
8
back_labelLayer
10
51.1205807
20
300.8976201
40
6.4175402
50
245.9801486
51
255.5455754
0
ARC
8
back_labelLayer
10
50.7129004
20
299.9495589
40
5.3856465
50
215.5850231
51
245.8361624
0
ARC
8
back_labelLayer
10
-4.3648768
20
311.9631652
40
50.6979027
50
358.1123242
51
0.0484375
0
ARC
8
back_labelLayer
10
9.745053
20
311.489465
40
36.5800273
50
355.7238644
51
358.1258871
0
ARC
8
back_labelLayer
10
16.0173312
20
311.0580442
40
30.2930644
50
355.4713576
51
355.6530087
0
ARC
8
back_labelLayer
10
50.8679115
20
305.5038709
40
5.5286126
50
95.1835129
51
145.1109004
0
ARC
8
back_labelLayer
10
51.3538571
20
302.7635716
40
8.3049733
50
89.8743476
51
96.8145341
0
ARC
8
back_labelLayer
10
50.9696011
20
302.199457
40
6.8331246
50
89.5731434
51
100.7324176
0
ARC
8
back_labelLayer
10
50.4637603
20
304.7551489
40
4.2279915
50
100.4469528
51
119.6700723
0
ARC
8
back_labelLayer
10
49.9946908
20
305.6321295
40
3.233909
50
120.1402875
51
142.4249075
0
ARC
8
back_labelLayer
10
50.7707233
20
305.1187577
40
4.1625406
50
143.3382276
51
161.2559935
0
ARC
8
back_labelLayer
10
54.0159467
20
303.9665943
40
7.6060392
50
160.8926354
51
171.233432
0
ARC
8
back_labelLayer
10
59.4335212
20
303.0926142
40
13.0935806
50
171.0667915
51
177.8456746
0
ARC
8
back_labelLayer
10
65.0676728
20
302.8060657
40
18.7346701
50
177.6176752
51
180.0425345
0
ARC
8
back_labelLayer
10
62.4107224
20
302.7293784
40
16.0778372
50
179.7762762
51
185.7075238
0
ARC
8
back_labelLayer
10
56.0718035
20
302.0762473
40
9.7054088
50
185.5924934
51
194.205064
0
ARC
8
back_labelLayer
10
52.0111549
20
301.0223699
40
5.5103634
50
193.9430518
51
208.0218313
0
ARC
8
back_labelLayer
10
50.3682102
20
300.1865616
40
3.667512
50
208.5536784
51
217.5605297
0
ARC
8
back_labelLayer
10
50.2343445
20
300.13088
40
3.5276509
50
218.1690464
51
253.8047204
0
ARC
8
back_labelLayer
10
50.8886549
20
302.1481833
40
5.6477781
50
253.1382386
51
266.8483183
0
ARC
8
back_labelLayer
10
51.0721381
20
304.3119816
40
7.8186553
50
266.3775488
51
270.0510292
0
ARC
8
back_labelLayer
10
51.1309714
20
301.3405065
40
4.8474545
50
269.3868986
51
285.8630641
0
ARC
8
back_labelLayer
10
51.4911078
20
300.0389253
40
3.4970136
50
286.0162822
51
326.8497419
0
ARC
8
back_labelLayer
10
49.7529163
20
301.190416
40
5.5819897
50
326.7104876
51
343.6661894
0
ARC
8
back_labelLayer
10
46.4991107
20
302.1846759
40
8.9841737
50
343.4171289
51
353.6369161
0
ARC
8
back_labelLayer
10
41.5845336
20
302.7678243
40
13.9331478
50
353.4934819
51
0.2205382
0
ARC
8
back_labelLayer
10
41.1513569
20
302.8796075
40
14.366339
50
359.7680741
51
6.3095199
0
ARC
8
back_labelLayer
10
46.5628769
20
303.5006128
40
8.9193781
50
6.164853
51
16.039649
0
ARC
8
back_labelLayer
10
50.0488677
20
304.5279344
40
5.2852981
50
15.7779476
51
32.0151302
0
ARC
8
back_labelLayer
10
51.1358788
20
305.1504237
40
4.0338953
50
32.7034216
51
35.5242113
0
ARC
8
back_labelLayer
10
51.5335108
20
305.4330407
40
3.5460609
50
35.5408426
51
79.8011184
0
ARC
8
back_labelLayer
10
51.0573116
20
303.408624
40
5.6238884
50
78.6781294
51
90.3749572
0
LINE
8
back_labelLayer
10
73.9599609
20
294.7501655
11
72.1582031
21
294.7501655
0
LINE
8
back_labelLayer
10
72.1582031
20
294.7501655
11
71.6748047
21
297.0353217
0
LINE
8
back_labelLayer
10
71.6748047
20
297.0353217
11
71.5576172
21
297.0353217
0
LINE
8
back_labelLayer
10
68.8623047
20
304.2862983
11
71.5869141
21
304.3741889
0
LINE
8
back_labelLayer
10
71.5869141
20
304.3741889
11
71.5869141
21
305.3702827
0
LINE
8
back_labelLayer
10
63.6328125
20
307.8312202
11
62.8857422
21
309.6915717
0
LINE
8
back_labelLayer
10
73.9599609
20
305.7071967
11
73.9599609
21
294.7501655
0
LINE
8
back_labelLayer
10
71.5283203
20
301.195478
11
71.5283203
21
302.6456733
0
LINE
8
back_labelLayer
10
71.5283203
20
302.6456733
11
69.0966797
21
302.5431342
0
ARC
8
back_labelLayer
10
63.6460526
20
303.281884
40
10.0802974
50
314.744488
51
321.7072037
0
ARC
8
back_labelLayer
10
66.1225959
20
300.7655199
40
6.5497
50
304.8485587
51
314.8530738
0
ARC
8
back_labelLayer
10
67.312299
20
299.072099
40
4.4801693
50
294.3932715
51
304.7371493
0
ARC
8
back_labelLayer
10
66.9058461
20
300.1252483
40
5.6075445
50
281.2979599
51
293.7313772
0
ARC
8
back_labelLayer
10
66.3685412
20
302.729305
40
8.2664197
50
272.9334953
51
281.4139096
0
ARC
8
back_labelLayer
10
66.1904428
20
305.4001787
40
10.9429856
50
269.9539134
51
273.1490994
0
ARC
8
back_labelLayer
10
66.1289252
20
301.9193847
40
7.4623742
50
258.6719737
51
270.4047503
0
ARC
8
back_labelLayer
10
65.6105786
20
299.4398254
40
4.9293487
50
238.3273158
51
258.9183797
0
ARC
8
back_labelLayer
10
65.253391
20
298.7881682
40
4.1873752
50
227.7689619
51
237.8049689
0
ARC
8
back_labelLayer
10
65.1416443
20
298.6321746
40
3.9968251
50
192.0827609
51
227.4520802
0
ARC
8
back_labelLayer
10
67.2022382
20
299.1401314
40
6.118446
50
179.5457208
51
192.6949363
0
ARC
8
back_labelLayer
10
65.2879642
20
299.3616668
40
4.207539
50
115.4904628
51
182.3568128
0
ARC
8
back_labelLayer
10
67.3951467
20
295.4966609
40
8.6064735
50
101.3568227
51
117.0798656
0
ARC
8
back_labelLayer
10
69.0874078
20
287.5885749
40
16.6932663
50
92.4696286
51
101.7064957
0
ARC
8
back_labelLayer
10
69.5738054
20
280.5435767
40
23.75338
50
91.7164752
51
92.9095494
0
ARC
8
back_labelLayer
10
64.6027498
20
305.4076637
40
6.9842643
50
359.6933415
51
8.0035748
0
ARC
8
back_labelLayer
10
67.2447665
20
305.79255
40
4.3144133
50
7.8272631
51
20.6041721
0
ARC
8
back_labelLayer
10
68.7398318
20
306.3644871
40
2.7137269
50
20.4094137
51
41.4479525
0
ARC
8
back_labelLayer
10
68.9607293
20
306.4859083
40
2.4683957
50
42.7295484
51
71.0380284
0
ARC
8
back_labelLayer
10
68.4406638
20
305.0718431
40
3.9748478
50
70.5716135
51
83.9928556
0
ARC
8
back_labelLayer
10
68.1922092
20
303.0536354
40
6.0080816
50
83.6506868
51
90.1752905
0
ARC
8
back_labelLayer
10
68.2357939
20
301.1450446
40
7.9168869
50
90.4484608
51
103.7665578
0
ARC
8
back_labelLayer
10
69.166771
20
297.2190587
40
11.9516715
50
103.6226421
51
112.4320076
0
ARC
8
back_labelLayer
10
70.7625796
20
293.1897593
40
16.2851452
50
112.2122236
51
115.9641072
0
ARC
8
back_labelLayer
10
68.2070238
20
299.8233168
40
11.211534
50
106.3568647
51
118.3349792
0
ARC
8
back_labelLayer
10
68.6846309
20
298.3479389
40
12.7617728
50
104.5162233
51
106.54894
0
ARC
8
back_labelLayer
10
68.3343552
20
299.8073217
40
11.261212
50
90.0714479
51
104.6521039
0
ARC
8
back_labelLayer
10
68.3785493
20
300.7987786
40
10.2699113
50
81.5679752
51
90.3249048
0
ARC
8
back_labelLayer
10
68.9723415
20
304.6671635
40
6.3563023
50
68.2273425
51
81.7494208
0
ARC
8
back_labelLayer
10
69.7993956
20
306.724945
40
4.1385449
50
47.8683212
51
68.2934153
0
ARC
8
back_labelLayer
10
69.9336272
20
306.992965
40
3.8505688
50
19.2331017
51
46.6741169
0
ARC
8
back_labelLayer
10
67.6975224
20
306.1611312
40
6.2360753
50
6.3379166
51
19.6815242
0
ARC
8
back_labelLayer
10
64.391991
20
305.7401463
40
9.5680267
50
359.802689
51
6.6583344
0
ARC
8
back_labelLayer
10
66.714209
20
303.1588646
40
6.6950125
50
269.5792012
51
282.0413584
0
ARC
8
back_labelLayer
10
67.2025636
20
300.9927293
40
4.4747324
50
281.7120903
51
306.4594012
0
ARC
8
back_labelLayer
10
67.4190869
20
300.6366343
40
4.0598363
50
306.9881541
51
313.8559225
0
ARC
8
back_labelLayer
10
67.3933457
20
300.6292355
40
4.0724049
50
314.1891946
51
347.4269868
0
ARC
8
back_labelLayer
10
65.3533736
20
301.1404436
40
6.1749827
50
346.9177587
51
0.2824605
0
ARC
8
back_labelLayer
10
63.8234467
20
301.195463
40
7.7048737
50
359.8172328
51
0.0001113
0
ARC
8
back_labelLayer
10
69.6750896
20
284.6980231
40
17.8544826
50
91.8564664
51
96.4478445
0
ARC
8
back_labelLayer
10
68.8699068
20
291.6654821
40
10.8406896
50
96.3545447
51
102.9953331
0
ARC
8
back_labelLayer
10
67.7769256
20
296.3092273
40
6.0701334
50
102.7995555
51
113.2433025
0
ARC
8
back_labelLayer
10
66.8758878
20
298.4641631
40
3.7345834
50
113.5886379
51
121.6805149
0
ARC
8
back_labelLayer
10
66.2498879
20
299.4175436
40
2.5946999
50
120.973416
51
172.417972
0
ARC
8
back_labelLayer
10
67.4734606
20
299.173143
40
3.8406727
50
171.2122129
51
180.2058388
0
ARC
8
back_labelLayer
10
67.1077918
20
299.1306333
40
3.4750979
50
179.5266065
51
192.7787264
0
ARC
8
back_labelLayer
10
65.9322268
20
298.8456718
40
2.2656909
50
192.3264534
51
222.0579679
0
ARC
8
back_labelLayer
10
65.8447613
20
298.7933561
40
2.1657952
50
222.580427
51
229.2547122
0
ARC
8
back_labelLayer
10
66.1402634
20
299.1738024
40
2.6470147
50
229.7837007
51
254.2724232
0
ARC
8
back_labelLayer
10
66.5338022
20
300.485232
40
4.016088
50
253.9396653
51
266.4533753
0
ARC
8
back_labelLayer
10
66.6594085
20
301.933126
40
5.4690962
50
266.078343
51
270.0589869
0
LINE
8
back_labelLayer
10
89.6777344
20
310.2628608
11
88.9306641
21
308.1974311
0
LINE
8
back_labelLayer
10
89.4433594
20
297.445478
11
89.4433594
21
295.2921577
0
ARC
8
back_labelLayer
10
85.3081836
20
303.5448833
40
9.0880175
50
256.4243711
51
270.4889771
0
ARC
8
back_labelLayer
10
84.5819652
20
300.7105156
40
6.1625092
50
221.7976345
51
256.8020487
0
ARC
8
back_labelLayer
10
85.2852244
20
301.2301257
40
7.0335828
50
196.0166632
51
221.1349212
0
ARC
8
back_labelLayer
10
88.8197317
20
302.3104543
40
10.7291526
50
183.5913668
51
196.3539605
0
ARC
8
back_labelLayer
10
92.7792579
20
302.6592813
40
14.7030945
50
179.9388629
51
183.9815098
0
ARC
8
back_labelLayer
10
91.4927428
20
302.761352
40
13.416849
50
169.8978481
51
180.3688904
0
ARC
8
back_labelLayer
10
86.8220312
20
303.6253624
40
8.6670554
50
153.087523
51
170.1051303
0
ARC
8
back_labelLayer
10
85.0498559
20
304.4721556
40
6.7036905
50
138.6550052
51
152.6853614
0
ARC
8
back_labelLayer
10
84.7191016
20
304.713187
40
6.2962667
50
101.4912928
51
138.3133885
0
ARC
8
back_labelLayer
10
85.4784364
20
301.5529186
40
9.5451485
50
89.5891863
51
102.1787781
0
ARC
8
back_labelLayer
10
85.5368283
20
300.1245332
40
10.9732932
50
77.7702386
51
89.9475424
0
ARC
8
back_labelLayer
10
85.3291655
20
298.9788406
40
12.1370402
50
74.6796683
51
77.9578634
0
ARC
8
back_labelLayer
10
86.4510269
20
303.0431339
40
7.920768
50
70.0945767
51
74.7385944
0
ARC
8
back_labelLayer
10
87.518211
20
305.9677557
40
4.8075387
50
63.5034039
51
70.1861588
0
ARC
8
back_labelLayer
10
88.0291385
20
307.0373041
40
3.6224418
50
62.9282302
51
63.1884379
0
ARC
8
back_labelLayer
10
84.9361116
20
298.144533
40
10.8174493
50
68.3294369
51
74.8831395
0
ARC
8
back_labelLayer
10
84.3654936
20
296.1212559
40
12.9195444
50
74.7801423
51
77.4497699
0
ARC
8
back_labelLayer
10
84.964569
20
298.9332483
40
10.0446
50
77.2999099
51
81.7345068
0
ARC
8
back_labelLayer
10
85.4016012
20
301.9784688
40
6.9681857
50
81.691018
51
87.5079201
0
ARC
8
back_labelLayer
10
85.4859142
20
303.5541541
40
5.3903477
50
87.6750185
51
89.9748402
0
ARC
8
back_labelLayer
10
85.3677377
20
303.5521129
40
5.3937357
50
88.7194012
51
112.5667671
0
ARC
8
back_labelLayer
10
84.9844762
20
304.8192743
40
4.0786653
50
114.4265747
51
161.6632833
0
ARC
8
back_labelLayer
10
88.7917958
20
303.3290481
40
8.1643695
50
160.1418402
51
175.1368164
0
ARC
8
back_labelLayer
10
94.0320552
20
302.7406041
40
13.4364012
50
174.5309716
51
180.1549496
0
ARC
8
back_labelLayer
10
92.3718846
20
302.6434544
40
11.7763385
50
179.704125
51
188.0743671
0
ARC
8
back_labelLayer
10
88.1301943
20
302.0228489
40
7.4895518
50
187.9315203
51
200.3885431
0
ARC
8
back_labelLayer
10
85.8366811
20
301.1732207
40
5.0437267
50
200.4183545
51
216.6392615
0
ARC
8
back_labelLayer
10
84.8751756
20
300.4858657
40
3.8620743
50
216.9695403
51
261.3103038
0
ARC
8
back_labelLayer
10
85.299504
20
302.464153
40
5.8829976
50
260.1359468
51
270.2692365
0
ARC
8
back_labelLayer
10
85.279919
20
306.7602526
40
10.179142
50
270.2658435
51
286.2891413
0
ARC
8
back_labelLayer
10
84.6611231
20
309.0679627
40
12.5678929
50
286.0460546
51
292.3654113
0
ARC
8
back_labelLayer
10
86.3090973
20
301.4579988
40
6.916733
50
282.0344257
51
296.9454494
0
ARC
8
back_labelLayer
10
85.5977512
20
304.6637718
40
10.2004029
50
272.5980625
51
282.1878312
0
ARC
8
back_labelLayer
10
85.3937734
20
307.792152
40
13.3349576
50
269.9654928
51
272.8642896
0
LINE
8
back_labelLayer
10
95.5371094
20
302.9679389
11
95.6542969
21
302.9679389
0
LINE
8
back_labelLayer
10
97.5732422
20
305.3116889
11
102.7587891
21
310.804853
0
LINE
8
back_labelLayer
10
102.7587891
20
310.804853
11
105.6445313
21
310.804853
0
LINE
8
back_labelLayer
10
105.6445313
20
310.804853
11
99.140625
21
303.9640327
0
LINE
8
back_labelLayer
10
99.140625
20
303.9640327
11
106.0986328
21
294.7501655
0
LINE
8
back_labelLayer
10
106.0986328
20
294.7501655
11
103.1542969
21
294.7501655
0
LINE
8
back_labelLayer
10
103.1542969
20
294.7501655
11
97.4853516
21
302.3380561
0
LINE
8
back_labelLayer
10
97.4853516
20
302.3380561
11
95.6542969
21
300.7560249
0
LINE
8
back_labelLayer
10
95.6542969
20
300.7560249
11
95.6542969
21
294.7501655
0
LINE
8
back_labelLayer
10
95.6542969
20
294.7501655
11
93.2519531
21
294.7501655
0
LINE
8
back_labelLayer
10
93.2519531
20
294.7501655
11
93.2519531
21
317.5431342
0
LINE
8
back_labelLayer
10
93.2519531
20
317.5431342
11
95.6542969
21
317.5431342
0
LINE
8
back_labelLayer
10
95.6542969
20
317.5431342
11
95.6542969
21
305.4581733
0
ARC
8
back_labelLayer
10
107.4036154
20
294.6512772
40
14.3949071
50
142.3233672
51
144.7075348
0
ARC
8
back_labelLayer
10
115.0693203
20
288.7385488
40
24.0759901
50
140.4331109
51
142.3365695
0
ARC
8
back_labelLayer
10
125.0590419
20
280.5152454
40
37.0149577
50
139.2798925
51
140.470333
0
ARC
8
back_labelLayer
10
136.6082762
20
270.5837266
40
52.2471554
50
138.3417452
51
139.2877416
0
ARC
8
back_labelLayer
10
79.4506812
20
305.48849
40
16.203644
50
358.273896
51
359.8928007
0
ARC
8
back_labelLayer
10
66.8411748
20
305.839908
40
28.8180282
50
357.5041907
51
358.3306796
0
ARC
8
back_labelLayer
10
47.977623
20
306.6730965
40
47.6999697
50
356.6324895
51
357.4910259
0
ARC
8
back_labelLayer
10
16.6115869
20
308.5024582
40
79.119305
50
356.0329202
51
356.6442557
0
ARC
8
back_labelLayer
10
-5.3579342
20
309.9864963
40
101.1388649
50
356.0207466
51
356.0552642
0
LINE
8
right_outsideCutPath
10
157
20
406
11
157
21
375.31025
0
LINE
8
right_outsideCutPath
10
157
20
375.31025
11
153
21
375.31025
0
LINE
8
right_outsideCutPath
10
153
20
375.31025
11
153
21
347.58615
0
LINE
8
right_outsideCutPath
10
153
20
347.58615
11
157
21
347.58615
0
LINE
8
right_outsideCutPath
10
157
20
347.58615
11
157
21
319.86205
0
LINE
8
right_outsideCutPath
10
157
20
319.86205
11
153
21
319.86205
0
LINE
8
right_outsideCutPath
10
153
20
319.86205
11
153
21
292.13795
0
LINE
8
right_outsideCutPath
10
153
20
292.13795
11
157
21
292.13795
0
LINE
8
right_outsideCutPath
10
157
20
292.13795
11
157
21
264.41385
0
LINE
8
right_outsideCutPath
10
157
20
264.41385
11
153
21
264.41385
0
LINE
8
right_outsideCutPath
10
153
20
264.41385
11
153
21
236.68975
0
LINE
8
right_outsideCutPath
10
153
20
236.68975
11
157
21
236.68975
0
LINE
8
right_outsideCutPath
10
157
20
236.68975
11
157
21
206
0
LINE
8
right_outsideCutPath
10
157
20
206
11
186.41385
21
206
0
LINE
8
right_outsideCutPath
10
186.41385
20
206
11
186.41385
21
210
0
LINE
8
right_outsideCutPath
10
186.41385
20
210
11
214.13795
21
210
0
LINE
8
right_outsideCutPath
10
214.13795
20
210
11
214.13795
21
206
0
LINE
8
right_outsideCutPath
10
214.13795
20
206
11
241.86205
21
206
0
LINE
8
right_outsideCutPath
10
241.86205
20
206
11
241.86205
21
210
0
LINE
8
right_outsideCutPath
10
241.86205
20
210
11
269.58615
21
210
0
LINE
8
right_outsideCutPath
10
269.58615
20
210
11
269.58615
21
206
0
LINE
8
right_outsideCutPath
10
269.58615
20
206
11
297.31025
21
206
0
LINE
8
right_outsideCutPath
10
297.31025
20
206
11
299
21
206
0
LINE
8
right_outsideCutPath
10
299
20
206
11
299
21
236.68975
0
LINE
8
right_outsideCutPath
10
299
20
236.68975
11
303
21
236.68975
0
LINE
8
right_outsideCutPath
10
303
20
236.68975
11
303
21
264.41385
0
LINE
8
right_outsideCutPath
10
303
20
264.41385
11
299
21
264.41385
0
LINE
8
right_outsideCutPath
10
299
20
264.41385
11
299
21
292.13795
0
LINE
8
right_outsideCutPath
10
299
20
292.13795
11
303
21
292.13795
0
LINE
8
right_outsideCutPath
10
303
20
292.13795
11
303
21
319.86205
0
LINE
8
right_outsideCutPath
10
303
20
319.86205
11
299
21
319.86205
0
LINE
8
right_outsideCutPath
10
299
20
319.86205
11
299
21
347.58615
0
LINE
8
right_outsideCutPath
10
299
20
347.58615
11
303
21
347.58615
0
LINE
8
right_outsideCutPath
10
303
20
347.58615
11
303
21
375.31025
0
LINE
8
right_outsideCutPath
10
303
20
375.31025
11
299
21
375.31025
0
LINE
8
right_outsideCutPath
10
299
20
375.31025
11
299
21
406
0
LINE
8
right_outsideCutPath
10
299
20
406
11
269.58615
21
406
0
LINE
8
right_outsideCutPath
10
269.58615
20
406
11
269.58615
21
402
0
LINE
8
right_outsideCutPath
10
269.58615
20
402
11
241.86205
21
402
0
LINE
8
right_outsideCutPath
10
241.86205
20
402
11
241.86205
21
406
0
LINE
8
right_outsideCutPath
10
241.86205
20
406
11
214.13795
21
406
0
LINE
8
right_outsideCutPath
10
214.13795
20
406
11
214.13795
21
402
0
LINE
8
right_outsideCutPath
10
214.13795
20
402
11
186.41385
21
402
0
LINE
8
right_outsideCutPath
10
186.41385
20
402
11
186.41385
21
406
0
LINE
8
right_outsideCutPath
10
186.41385
20
406
11
158.68975
21
406
0
LINE
8
right_outsideCutPath
10
158.68975
20
406
11
157
21
406
0
LINE
8
right_labelLayer
10
206.2104492
20
314.3789947
11
205.8735351
21
312.1231353
0
LINE
8
right_labelLayer
10
199.3989258
20
306.8204009
11
199.3989258
21
298.2071197
0
LINE
8
right_labelLayer
10
199.3989258
20
298.2071197
11
196.9672851
21
298.2071197
0
LINE
8
right_labelLayer
10
196.9672851
20
298.2071197
11
196.9672851
21
314.2618072
0
LINE
8
right_labelLayer
10
196.9672851
20
314.2618072
11
198.9741211
21
314.2618072
0
LINE
8
right_labelLayer
10
198.9741211
20
314.2618072
11
199.2524414
21
311.2881743
0
LINE
8
right_labelLayer
10
199.2524414
20
311.2881743
11
199.3696289
21
311.2881743
0
ARC
8
right_labelLayer
10
204.3164649
20
303.3915331
40
11.1632708
50
84.9922975
51
90.128113
0
ARC
8
right_labelLayer
10
204.5845486
20
306.3951485
40
8.1477206
50
78.48919
51
85.0265853
0
ARC
8
right_labelLayer
10
203.5439833
20
301.662392
40
10.7169941
50
77.445399
51
81.6360133
0
ARC
8
right_labelLayer
10
204.0109182
20
304.8808836
40
7.4648162
50
81.5884485
51
87.1916399
0
ARC
8
right_labelLayer
10
204.1123408
20
306.6397014
40
5.7031614
50
87.3436069
51
89.9660252
0
ARC
8
right_labelLayer
10
204.088775
20
308.1296342
40
4.2133138
50
89.633544
51
137.0880795
0
ARC
8
right_labelLayer
10
205.1228164
20
306.9668307
40
5.7642587
50
135.6209228
51
138.8377267
0
ARC
8
right_labelLayer
10
204.9712822
20
307.1147409
40
5.552835
50
138.9575746
51
174.542222
0
ARC
8
right_labelLayer
10
206.7797483
20
306.8317709
40
7.3808313
50
173.6907685
51
180.0882625
0
ARC
8
right_labelLayer
10
206.52404
20
307.2574102
40
8.2117391
50
139.4139341
51
150.6032786
0
ARC
8
right_labelLayer
10
205.0516634
20
308.5190822
40
6.2727422
50
124.2321445
51
139.4161095
0
ARC
8
right_labelLayer
10
204.2644028
20
309.7074491
40
4.8474026
50
89.6796658
51
124.4405647
0
LINE
8
right_labelLayer
10
211.6450195
20
314.2618072
11
211.6450195
21
298.2071197
0
LINE
8
right_labelLayer
10
211.6450195
20
298.2071197
11
209.2133789
21
298.2071197
0
LINE
8
right_labelLayer
10
209.2133789
20
298.2071197
11
209.2133789
21
314.2618072
0
LINE
8
right_labelLayer
10
209.2133789
20
314.2618072
11
211.6450195
21
314.2618072
0
ARC
8
right_labelLayer
10
211.7027894
20
318.6290647
40
2.6945402
50
170.8451801
51
180.3545024
0
ARC
8
right_labelLayer
10
210.6940717
20
318.7977264
40
1.6718478
50
155.9678963
51
171.0516122
0
ARC
8
right_labelLayer
10
210.2054939
20
319.0144807
40
1.1373486
50
133.7880579
51
155.9171606
0
ARC
8
right_labelLayer
10
210.3858741
20
318.8150604
40
1.4061542
50
92.6445932
51
133.4710475
0
ARC
8
right_labelLayer
10
210.4428515
20
318.3675261
40
1.8561953
50
89.9692535
51
93.7641382
0
ARC
8
right_labelLayer
10
210.4660489
20
318.7912003
40
1.4326929
50
46.3708466
51
90.8879029
0
ARC
8
right_labelLayer
10
210.6086379
20
318.9384048
40
1.2277598
50
17.7251728
51
46.4473581
0
ARC
8
right_labelLayer
10
209.9437226
20
318.7094322
40
1.9308847
50
4.9427768
51
18.1901061
0
ARC
8
right_labelLayer
10
209.0977687
20
318.617985
40
2.7816314
50
359.8848193
51
5.3180565
0
ARC
8
right_labelLayer
10
209.3635478
20
318.5953094
40
2.5159047
50
349.8344911
51
0.389057
0
ARC
8
right_labelLayer
10
210.2794912
20
318.4244419
40
1.5841965
50
332.6321881
51
350.0706019
0
ARC
8
right_labelLayer
10
210.6359848
20
318.2484076
40
1.1867047
50
313.6153465
51
332.2677112
0
ARC
8
right_labelLayer
10
210.4641781
20
318.4048435
40
1.4185727
50
269.1788312
51
314.2807522
0
ARC
8
right_labelLayer
10
210.4277309
20
318.5309534
40
1.5446209
50
250.5000266
51
270.5978416
0
ARC
8
right_labelLayer
10
210.3809856
20
318.3561582
40
1.3643225
50
225.1300968
51
249.9001603
0
ARC
8
right_labelLayer
10
210.3077976
20
318.2753112
40
1.2554018
50
197.7933681
51
224.8942158
0
ARC
8
right_labelLayer
10
210.9927841
20
318.5100502
40
1.9794054
50
184.9925265
51
198.2040709
0
ARC
8
right_labelLayer
10
211.8792863
20
318.6064098
40
2.8709918
50
179.8805924
51
185.3686239
0
LINE
8
right_labelLayer
10
224.3891601
20
314.2618072
11
229.9409179
21
314.2618072
0
LINE
8
right_labelLayer
10
229.9409179
20
314.2618072
11
229.9409179
21
312.7237212
0
LINE
8
right_labelLayer
10
229.9409179
20
312.7237212
11
226.9672851
21
312.3721587
0
LINE
8
right_labelLayer
10
221.4887695
20
300.7559478
11
224.3305664
21
300.7559478
0
LINE
8
right_labelLayer
10
223.5541992
20
298.5733306
11
220.6391601
21
298.5733306
0
ARC
8
right_labelLayer
10
223.8685352
20
309.9198446
40
3.9517206
50
29.4584221
51
38.3576763
0
ARC
8
right_labelLayer
10
222.2537177
20
308.9980088
40
5.8111205
50
23.1845649
51
29.5422311
0
ARC
8
right_labelLayer
10
220.7131742
20
308.3148241
40
7.4962486
50
21.2506311
51
23.3489602
0
ARC
8
right_labelLayer
10
223.3319169
20
309.3563094
40
4.6781351
50
6.8504742
51
20.9871911
0
ARC
8
right_labelLayer
10
222.0143954
20
309.1776708
40
6.0075924
50
359.8710579
51
7.0432324
0
ARC
8
right_labelLayer
10
222.447855
20
309.1061887
40
5.574419
50
342.5649698
51
0.5957665
0
ARC
8
right_labelLayer
10
223.4759416
20
308.822296
40
4.5086579
50
310.6097845
51
342.0923597
0
ARC
8
right_labelLayer
10
222.8994269
20
309.4928892
40
5.3930014
50
284.9315845
51
310.6222703
0
ARC
8
right_labelLayer
10
222.1779856
20
312.0209196
40
8.0216915
50
272.5334895
51
285.2579686
0
ARC
8
right_labelLayer
10
221.9924989
20
314.5546435
40
10.5613924
50
269.9691723
51
272.9311813
0
ARC
8
right_labelLayer
10
221.9694766
20
311.8081534
40
7.8149202
50
263.4836742
51
270.1271282
0
ARC
8
right_labelLayer
10
221.8421616
20
310.5989387
40
6.5990779
50
259.4963351
51
263.3904529
0
ARC
8
right_labelLayer
10
222.6300147
20
300.2686293
40
4.3270095
50
117.3935238
51
128.4095437
0
ARC
8
right_labelLayer
10
221.5160761
20
301.650552
40
2.5521231
50
128.0882203
51
147.1400098
0
ARC
8
right_labelLayer
10
220.9159454
20
302.0532875
40
1.8295383
50
147.5369177
51
180.2592203
0
ARC
8
right_labelLayer
10
220.3466212
20
302.0294352
40
1.2602917
50
179.2919014
51
198.3580568
0
ARC
8
right_labelLayer
10
220.1106534
20
301.9674199
40
1.0169186
50
199.2291444
51
239.5691179
0
ARC
8
right_labelLayer
10
220.3065475
20
302.2381659
40
1.3499609
50
238.2203665
51
239.8455508
0
ARC
8
right_labelLayer
10
220.4623927
20
302.558858
40
1.7057447
50
240.7302997
51
254.5026474
0
ARC
8
right_labelLayer
10
220.9279332
20
304.1630988
40
3.3761085
50
254.1637114
51
262.2123256
0
ARC
8
right_labelLayer
10
221.2967012
20
306.7388088
40
5.9780541
50
262.0556031
51
267.208289
0
ARC
8
right_labelLayer
10
221.4748333
20
310.0061816
40
9.2502443
50
267.0919509
51
270.0863204
0
ARC
8
right_labelLayer
10
224.3837224
20
290.8023529
40
9.9537369
50
81.5744353
51
90.3059786
0
ARC
8
right_labelLayer
10
224.9297083
20
294.3631706
40
6.3513769
50
68.3671409
51
81.7399381
0
ARC
8
right_labelLayer
10
225.6428151
20
296.1856113
40
4.3944162
50
52.1879509
51
68.2500885
0
ARC
8
right_labelLayer
10
226.1417937
20
296.8579507
40
3.5573858
50
8.6201331
51
51.8982454
0
ARC
8
right_labelLayer
10
224.3929639
20
296.4879143
40
5.3429297
50
359.7430745
51
9.7326439
0
ARC
8
right_labelLayer
10
224.4712913
20
296.3977809
40
5.2649644
50
340.5268811
51
0.7201621
0
ARC
8
right_labelLayer
10
225.2448403
20
296.2051775
40
4.4721074
50
302.990366
51
339.5494499
0
ARC
8
right_labelLayer
10
224.4321722
20
297.2380244
40
5.7821464
50
303.1870335
51
304.1721298
0
ARC
8
right_labelLayer
10
223.6760271
20
298.547338
40
7.292272
50
286.254224
51
302.5280075
0
ARC
8
right_labelLayer
10
222.2988123
20
303.090032
40
12.0389798
50
276.4939781
51
286.4953605
0
ARC
8
right_labelLayer
10
221.4395122
20
310.273294
40
19.2733824
50
269.7545101
51
276.6169579
0
ARC
8
right_labelLayer
10
221.2927584
20
304.6237974
40
13.6238602
50
262.5634845
51
270.2698928
0
ARC
8
right_labelLayer
10
220.6254859
20
299.6779803
40
8.6333062
50
251.2101852
51
262.7064025
0
ARC
8
right_labelLayer
10
219.6637241
20
296.8550751
40
5.6510626
50
235.9668077
51
251.2229171
0
ARC
8
right_labelLayer
10
218.644346
20
295.4008227
40
3.8755083
50
208.9036253
51
236.4231449
0
ARC
8
right_labelLayer
10
218.7379275
20
295.3615934
40
3.9392755
50
182.2079861
51
207.7461606
0
ARC
8
right_labelLayer
10
219.9290264
20
295.4805782
40
5.1345933
50
179.9784406
51
183.0226812
0
ARC
8
right_labelLayer
10
218.511957
20
295.5477417
40
3.7180957
50
138.3916112
51
181.0052659
0
ARC
8
right_labelLayer
10
218.9045952
20
295.1948767
40
4.2459877
50
113.8121507
51
138.3496222
0
ARC
8
right_labelLayer
10
219.64938
20
293.5865724
40
6.0181678
50
102.2870899
51
114.1172695
0
ARC
8
right_labelLayer
10
219.4153505
20
301.7633215
40
2.5237266
50
216.5861529
51
245.4968618
0
ARC
8
right_labelLayer
10
219.7764381
20
302.0696871
40
2.9964276
50
215.4650028
51
217.1747281
0
ARC
8
right_labelLayer
10
219.1748633
20
301.6351782
40
2.2543637
50
182.1767397
51
215.3415479
0
ARC
8
right_labelLayer
10
219.7106879
20
301.6926567
40
2.7922312
50
179.9837673
51
182.9377414
0
ARC
8
right_labelLayer
10
219.699078
20
301.7169531
40
2.7807203
50
161.7225905
51
180.4843257
0
ARC
8
right_labelLayer
10
219.3933406
20
301.8003785
40
2.4643003
50
144.4963266
51
161.335044
0
ARC
8
right_labelLayer
10
220.2083328
20
301.1929759
40
3.4805846
50
132.7258978
51
144.1479593
0
ARC
8
right_labelLayer
10
221.5145268
20
299.798122
40
5.3915133
50
125.2212697
51
132.8655757
0
ARC
8
right_labelLayer
10
222.8276761
20
297.974659
40
7.6385254
50
121.2352101
51
125.3795102
0
ARC
8
right_labelLayer
10
220.4997591
20
308.4436005
40
4.2628622
50
215.1640777
51
247.4747836
0
ARC
8
right_labelLayer
10
221.2955346
20
309.0858173
40
5.2837001
50
212.4714017
51
215.8875262
0
ARC
8
right_labelLayer
10
221.0862402
20
308.9360859
40
5.0267588
50
183.0160764
51
212.3123222
0
ARC
8
right_labelLayer
10
222.1893447
20
309.0590329
40
6.1351459
50
179.9759156
51
183.6206495
0
ARC
8
right_labelLayer
10
223.0793647
20
309.1209502
40
7.0254161
50
166.8195718
51
180.4839401
0
ARC
8
right_labelLayer
10
220.7487584
20
309.7093787
40
4.6222193
50
132.3287738
51
167.3340828
0
ARC
8
right_labelLayer
10
221.060562
20
309.2611869
40
5.1640201
50
106.2188921
51
131.5377619
0
ARC
8
right_labelLayer
10
221.8494863
20
306.706713
40
7.8373066
50
93.6329742
51
106.5408699
0
ARC
8
right_labelLayer
10
222.1070389
20
303.8152327
40
10.7395497
50
89.9380422
51
94.0267918
0
ARC
8
right_labelLayer
10
222.148741
20
305.2342426
40
9.3205819
50
82.5852025
51
90.1849623
0
ARC
8
right_labelLayer
10
222.4335397
20
307.437756
40
7.0987411
50
74.0088814
51
82.5694636
0
ARC
8
right_labelLayer
10
219.5801364
20
295.4785929
40
2.4421787
50
179.2207375
51
200.9355412
0
ARC
8
right_labelLayer
10
219.289715
20
295.4113463
40
2.1472923
50
202.028682
51
236.1457445
0
ARC
8
right_labelLayer
10
219.7274412
20
295.9671421
40
2.8532153
50
235.0635288
51
238.5041485
0
ARC
8
right_labelLayer
10
220.2362702
20
296.8759899
40
3.8942162
50
239.1066335
51
254.4862688
0
ARC
8
right_labelLayer
10
220.9147126
20
299.215242
40
6.3297656
50
254.2323996
51
263.4937376
0
ARC
8
right_labelLayer
10
221.3408805
20
302.8248021
40
9.9643784
50
263.4108367
51
270.1457381
0
ARC
8
right_labelLayer
10
221.3862191
20
305.3518759
40
12.4914359
50
269.9082956
51
270.0000522
0
ARC
8
right_labelLayer
10
221.4445051
20
309.20705
40
16.3467139
50
269.7957451
51
275.3991203
0
ARC
8
right_labelLayer
10
222.0563133
20
302.9262789
40
10.0362576
50
275.2956917
51
283.3515978
0
ARC
8
right_labelLayer
10
223.0530777
20
298.8208003
40
5.8116066
50
283.1370565
51
295.8573023
0
ARC
8
right_labelLayer
10
223.7916463
20
297.2084082
40
4.0387136
50
296.4047628
51
301.800868
0
ARC
8
right_labelLayer
10
224.0812221
20
296.8092656
40
3.5470713
50
301.2230612
51
318.623824
0
ARC
8
right_labelLayer
10
224.7343382
20
296.2059574
40
2.6582784
50
319.0765492
51
1.1407
0
ARC
8
right_labelLayer
10
224.1022477
20
296.2849409
40
3.2899453
50
359.5460895
51
10.9904556
0
ARC
8
right_labelLayer
10
225.3730418
20
296.5434175
40
1.9932144
50
10.6608966
51
30.9361964
0
ARC
8
right_labelLayer
10
225.7759684
20
296.7670293
40
1.5327298
50
31.5095242
51
58.0777973
0
ARC
8
right_labelLayer
10
225.3983285
20
296.0908508
40
2.3066283
50
58.9972204
51
73.8586269
0
ARC
8
right_labelLayer
10
224.635033
20
293.5920431
40
4.9192829
50
73.4100211
51
81.5907175
0
ARC
8
right_labelLayer
10
223.9882953
20
289.4067576
40
9.1541941
50
81.4172534
51
86.575652
0
ARC
8
right_labelLayer
10
223.591986
20
283.1011959
40
15.4721809
50
86.5054148
51
90.1399304
0
ARC
8
right_labelLayer
10
220.6043822
20
292.9838153
40
5.5896235
50
89.6435106
51
100.0209256
0
ARC
8
right_labelLayer
10
220.253066
20
294.8949447
40
3.6465428
50
99.8102994
51
116.8229519
0
ARC
8
right_labelLayer
10
219.9108409
20
295.6166495
40
2.8481377
50
117.2304255
51
130.5023368
0
ARC
8
right_labelLayer
10
219.7351342
20
295.8424745
40
2.5623404
50
130.7944768
51
169.0413469
0
ARC
8
right_labelLayer
10
221.0290641
20
295.5377507
40
3.8909669
50
168.2580784
51
180.3820305
0
ARC
8
right_labelLayer
10
223.2029099
20
309.0839012
40
4.7465058
50
179.5617604
51
191.6528929
0
ARC
8
right_labelLayer
10
221.552604
20
308.7273473
40
3.0582375
50
191.3555167
51
213.3660242
0
ARC
8
right_labelLayer
10
221.1562784
20
308.4985055
40
2.6015155
50
213.9573921
51
227.7971601
0
ARC
8
right_labelLayer
10
221.5010886
20
308.9167048
40
3.1430377
50
228.2620702
51
254.7341314
0
ARC
8
right_labelLayer
10
221.9415996
20
310.4267793
40
4.7158936
50
254.4016318
51
267.4348932
0
ARC
8
right_labelLayer
10
222.0565288
20
311.968144
40
6.2610253
50
267.0154831
51
270.0323014
0
ARC
8
right_labelLayer
10
222.1316489
20
311.0040854
40
5.2974495
50
269.2256745
51
284.3773171
0
ARC
8
right_labelLayer
10
222.8536824
20
308.488512
40
2.682417
50
282.7796679
51
346.4828526
0
ARC
8
right_labelLayer
10
220.6949952
20
309.0999757
40
4.9250518
50
345.436212
51
0.7466056
0
ARC
8
right_labelLayer
10
220.3915495
20
309.2389211
40
5.228614
50
359.1806315
51
15.0431734
0
ARC
8
right_labelLayer
10
222.7607272
20
309.9300355
40
2.7617497
50
13.9535648
51
77.6673807
0
ARC
8
right_labelLayer
10
222.0809855
20
307.4941308
40
5.2885822
50
76.1095014
51
90.7028344
0
ARC
8
right_labelLayer
10
221.9792414
20
307.6801707
40
5.1022775
50
89.5859458
51
101.3333986
0
ARC
8
right_labelLayer
10
221.6146169
20
309.4192801
40
3.3254624
50
101.0620578
51
121.9739065
0
ARC
8
right_labelLayer
10
221.3583586
20
309.8802714
40
2.7988389
50
122.5210906
51
134.9967017
0
ARC
8
right_labelLayer
10
221.4638711
20
309.8170524
40
2.9183018
50
135.5839989
51
163.0015846
0
ARC
8
right_labelLayer
10
223.0049583
20
309.31194
40
4.5398469
50
162.5912089
51
175.7343091
0
ARC
8
right_labelLayer
10
224.8533794
20
309.1298538
40
6.3968435
50
175.3393673
51
180.0864177
0
LINE
8
right_labelLayer
10
246.6547851
20
298.2071197
11
244.2231445
21
298.2071197
0
LINE
8
right_labelLayer
10
244.2231445
20
298.2071197
11
244.2231445
21
308.5928618
0
LINE
8
right_labelLayer
10
235.668457
20
306.6006743
11
235.668457
21
298.2071197
0
LINE
8
right_labelLayer
10
235.668457
20
298.2071197
11
233.2368164
21
298.2071197
0
LINE
8
right_labelLayer
10
233.2368164
20
298.2071197
11
233.2368164
21
321.0000884
0
LINE
8
right_labelLayer
10
233.2368164
20
321.0000884
11
235.668457
21
321.0000884
0
LINE
8
right_labelLayer
10
235.668457
20
321.0000884
11
235.668457
21
314.1006743
0
LINE
8
right_labelLayer
10
235.5512695
20
312.0352447
11
235.6977539
21
312.0352447
0
LINE
8
right_labelLayer
10
246.6547851
20
308.6807525
11
246.6547851
21
298.2071197
0
ARC
8
right_labelLayer
10
237.3496259
20
308.6322806
40
6.8736316
50
359.6714198
51
8.6877384
0
ARC
8
right_labelLayer
10
239.8971768
20
309.0363058
40
4.294308
50
8.4931567
51
22.657975
0
ARC
8
right_labelLayer
10
241.1915234
20
309.5741952
40
2.892648
50
22.7024355
51
42.3419491
0
ARC
8
right_labelLayer
10
241.3370153
20
309.6396421
40
2.7414764
50
43.3790936
51
71.538618
0
ARC
8
right_labelLayer
10
240.7929554
20
308.1194002
40
4.3559056
50
71.0827998
51
84.3691075
0
ARC
8
right_labelLayer
10
240.5487364
20
306.0429863
40
6.4463824
50
84.0197712
51
90.1510809
0
ARC
8
right_labelLayer
10
240.4793317
20
305.1310377
40
7.3584951
50
89.5919411
51
100.3595137
0
ARC
8
right_labelLayer
10
239.958283
20
307.8692187
40
4.5712971
50
100.1067799
51
118.0847352
0
ARC
8
right_labelLayer
10
239.4283352
20
308.9091058
40
3.4044382
50
118.455112
51
139.6706122
0
ARC
8
right_labelLayer
10
239.9603758
20
308.5454486
40
4.0459405
50
140.6208408
51
160.5048888
0
ARC
8
right_labelLayer
10
242.7647893
20
307.5072659
40
7.0361759
50
160.1567172
51
171.531273
0
ARC
8
right_labelLayer
10
247.3023695
20
306.7883428
40
11.6302346
50
171.3202394
51
178.3406793
0
ARC
8
right_labelLayer
10
251.3622366
20
306.6069692
40
15.6937807
50
178.1079811
51
180.0229815
0
ARC
8
right_labelLayer
10
213.7941048
20
314.0746047
40
21.8743677
50
357.8674023
51
0.0682846
0
ARC
8
right_labelLayer
10
221.2251179
20
313.7910901
40
14.437953
50
354.9828641
51
357.8943613
0
ARC
8
right_labelLayer
10
226.1328203
20
313.3637357
40
9.511681
50
351.9712823
51
354.9619044
0
ARC
8
right_labelLayer
10
239.8165409
20
309.4588001
40
4.8582376
50
119.83159
51
147.9725879
0
ARC
8
right_labelLayer
10
240.404786
20
308.5551567
40
5.9350756
50
116.6657807
51
120.4183361
0
ARC
8
right_labelLayer
10
240.5146669
20
308.2665534
40
6.2423745
50
96.6652613
51
116.3782443
0
ARC
8
right_labelLayer
10
240.7513395
20
306.6336378
40
7.8918551
50
89.8927404
51
96.9959089
0
ARC
8
right_labelLayer
10
240.8270172
20
304.6601504
40
9.8655166
50
80.6863017
51
90.3537132
0
ARC
8
right_labelLayer
10
241.4413108
20
308.2733286
40
6.2005908
50
65.6022758
51
80.8844106
0
ARC
8
right_labelLayer
10
242.178963
20
309.9346832
40
4.3829183
50
46.7400722
51
65.413078
0
ARC
8
right_labelLayer
10
242.2290959
20
310.0929772
40
4.2338956
50
19.2204277
51
45.7660689
0
ARC
8
right_labelLayer
10
239.787808
20
309.1879708
40
6.8372243
50
6.4733726
51
19.6468083
0
ARC
8
right_labelLayer
10
236.139878
20
308.7184604
40
10.5149749
50
359.7945304
51
6.774397
0
LINE
8
right_labelLayer
10
259.0327148
20
300.2139556
11
259.0327148
21
298.353604
0
LINE
8
right_labelLayer
10
251.8256836
20
302.8213775
11
251.8256836
21
312.3721587
0
LINE
8
right_labelLayer
10
251.8256836
20
312.3721587
11
249.5258789
21
312.3721587
0
LINE
8
right_labelLayer
10
249.5258789
20
312.3721587
11
249.5258789
21
313.5440337
0
LINE
8
right_labelLayer
10
249.5258789
20
313.5440337
11
251.8256836
21
314.5547759
0
LINE
8
right_labelLayer
10
251.8256836
20
314.5547759
11
252.8510742
21
317.9825103
0
LINE
8
right_labelLayer
10
252.8510742
20
317.9825103
11
254.2573242
21
317.9825103
0
LINE
8
right_labelLayer
10
254.2573242
20
317.9825103
11
254.2573242
21
314.2618072
0
LINE
8
right_labelLayer
10
254.2573242
20
314.2618072
11
258.9155273
21
314.2618072
0
LINE
8
right_labelLayer
10
258.9155273
20
314.2618072
11
258.9155273
21
312.3721587
0
LINE
8
right_labelLayer
10
258.9155273
20
312.3721587
11
254.2573242
21
312.3721587
0
LINE
8
right_labelLayer
10
254.2573242
20
312.3721587
11
254.2573242
21
302.9239165
0
ARC
8
right_labelLayer
10
256.852125
20
307.9068285
40
7.985859
50
269.8803567
51
278.3028147
0
ARC
8
right_labelLayer
10
256.9282693
20
307.2848245
40
7.359393
50
278.4155018
51
279.0081532
0
ARC
8
right_labelLayer
10
256.032089
20
313.0099934
40
13.1542724
50
278.9589712
51
280.5104067
0
ARC
8
right_labelLayer
10
256.886075
20
308.4278158
40
8.4931972
50
280.4847462
51
282.6268366
0
ARC
8
right_labelLayer
10
257.6349662
20
305.1007141
40
5.0828564
50
282.5876837
51
285.5794974
0
ARC
8
right_labelLayer
10
258.0128571
20
303.7113606
40
3.643069
50
285.7232314
51
286.2569026
0
ARC
8
right_labelLayer
10
258.0103823
20
300.5158967
40
2.3917929
50
287.9888546
51
295.3047972
0
ARC
8
right_labelLayer
10
257.4334868
20
302.2612883
40
4.2300386
50
283.3069859
51
288.1197273
0
ARC
8
right_labelLayer
10
256.8241025
20
304.8032293
40
6.8439962
50
280.0070073
51
283.3735269
0
ARC
8
right_labelLayer
10
256.4161892
20
307.0169953
40
9.0949815
50
279.1863331
51
280.1142569
0
ARC
8
right_labelLayer
10
256.1660534
20
308.4397392
40
10.5394295
50
275.5260473
51
279.2939327
0
ARC
8
right_labelLayer
10
256.4481073
20
305.4937235
40
7.5799446
50
270.8932554
51
275.5483689
0
ARC
8
right_labelLayer
10
256.4835593
20
304.1456876
40
6.2315366
50
270.0030105
51
270.7605581
0
ARC
8
right_labelLayer
10
256.385762
20
304.2644813
40
6.3510885
50
253.7847975
51
270.8852589
0
ARC
8
right_labelLayer
10
255.6333275
20
301.698392
40
3.6769696
50
190.3817649
51
253.8772393
0
ARC
8
right_labelLayer
10
259.4684767
20
302.7353488
40
7.6432773
50
179.3550956
51
192.8477622
0
ARC
8
right_labelLayer
10
259.1537322
20
302.8932914
40
4.8965037
50
179.6416421
51
189.750605
0
ARC
8
right_labelLayer
10
257.4251782
20
302.5849809
40
3.1407243
50
189.5479448
51
205.7873695
0
ARC
8
right_labelLayer
10
256.7148136
20
302.2574098
40
2.3586394
50
206.129448
51
221.4084032
0
ARC
8
right_labelLayer
10
256.6351624
20
302.1969718
40
2.258937
50
221.5949217
51
262.3505132
0
ARC
8
right_labelLayer
10
256.8245969
20
303.1711136
40
3.2501449
50
261.3266146
51
270.1913113
0
LINE
8
bottom_outsideCutPath
10
310
20
302
11
310
21
272.58615
0
LINE
8
bottom_outsideCutPath
10
310
20
272.58615
11
306
21
272.58615
0
LINE
8
bottom_outsideCutPath
10
306
20
272.58615
11
306
21
244.86205
0
LINE
8
bottom_outsideCutPath
10
306
20
244.86205
11
310
21
244.86205
0
LINE
8
bottom_outsideCutPath
10
310
20
244.86205
11
310
21
217.13795
0
LINE
8
bottom_outsideCutPath
10
310
20
217.13795
11
306
21
217.13795
0
LINE
8
bottom_outsideCutPath
10
306
20
217.13795
11
306
21
189.41385
0
LINE
8
bottom_outsideCutPath
10
306
20
189.41385
11
310
21
189.41385
0
LINE
8
bottom_outsideCutPath
10
310
20
189.41385
11
310
21
161.68975
0
LINE
8
bottom_outsideCutPath
10
310
20
161.68975
11
310
21
160
0
LINE
8
bottom_outsideCutPath
10
310
20
160
11
339.41385
21
160
0
LINE
8
bottom_outsideCutPath
10
339.41385
20
160
11
339.41385
21
156
0
LINE
8
bottom_outsideCutPath
10
339.41385
20
156
11
367.13795
21
156
0
LINE
8
bottom_outsideCutPath
10
367.13795
20
156
11
367.13795
21
160
0
LINE
8
bottom_outsideCutPath
10
367.13795
20
160
11
394.86205
21
160
0
LINE
8
bottom_outsideCutPath
10
394.86205
20
160
11
394.86205
21
156
0
LINE
8
bottom_outsideCutPath
10
394.86205
20
156
11
422.58615
21
156
0
LINE
8
bottom_outsideCutPath
10
422.58615
20
156
11
422.58615
21
160
0
LINE
8
bottom_outsideCutPath
10
422.58615
20
160
11
450.31025
21
160
0
LINE
8
bottom_outsideCutPath
10
450.31025
20
160
11
452
21
160
0
LINE
8
bottom_outsideCutPath
10
452
20
160
11
452
21
189.41385
0
LINE
8
bottom_outsideCutPath
10
452
20
189.41385
11
456
21
189.41385
0
LINE
8
bottom_outsideCutPath
10
456
20
189.41385
11
456
21
217.13795
0
LINE
8
bottom_outsideCutPath
10
456
20
217.13795
11
452
21
217.13795
0
LINE
8
bottom_outsideCutPath
10
452
20
217.13795
11
452
21
244.86205
0
LINE
8
bottom_outsideCutPath
10
452
20
244.86205
11
456
21
244.86205
0
LINE
8
bottom_outsideCutPath
10
456
20
244.86205
11
456
21
272.58615
0
LINE
8
bottom_outsideCutPath
10
456
20
272.58615
11
452
21
272.58615
0
LINE
8
bottom_outsideCutPath
10
452
20
272.58615
11
452
21
300.31025
0
LINE
8
bottom_outsideCutPath
10
452
20
300.31025
11
452
21
302
0
LINE
8
bottom_outsideCutPath
10
452
20
302
11
422.58615
21
302
0
LINE
8
bottom_outsideCutPath
10
422.58615
20
302
11
422.58615
21
306
0
LINE
8
bottom_outsideCutPath
10
422.58615
20
306
11
394.86205
21
306
0
LINE
8
bottom_outsideCutPath
10
394.86205
20
306
11
394.86205
21
302
0
LINE
8
bottom_outsideCutPath
10
394.86205
20
302
11
367.13795
21
302
0
LINE
8
bottom_outsideCutPath
10
367.13795
20
302
11
367.13795
21
306
0
LINE
8
bottom_outsideCutPath
10
367.13795
20
306
11
339.41385
21
306
0
LINE
8
bottom_outsideCutPath
10
339.41385
20
306
11
339.41385
21
302
0
LINE
8
bottom_outsideCutPath
10
339.41385
20
302
11
311.68975
21
302
0
LINE
8
bottom_outsideCutPath
10
311.68975
20
302
11
310
21
302
0
LINE
8
bottom_labelLayer
10
334.0809836
20
221.8158087
11
333.9052023
21
221.8158087
0
LINE
8
bottom_labelLayer
10
333.9052023
20
221.8158087
11
333.392507
21
219.750379
0
LINE
8
bottom_labelLayer
10
333.392507
20
219.750379
11
331.649343
21
219.750379
0
LINE
8
bottom_labelLayer
10
331.649343
20
219.750379
11
331.649343
21
242.5433478
0
LINE
8
bottom_labelLayer
10
331.649343
20
242.5433478
11
334.0809836
21
242.5433478
0
LINE
8
bottom_labelLayer
10
334.0809836
20
242.5433478
11
334.0809836
21
237.0062384
0
LINE
8
bottom_labelLayer
10
333.9637961
20
233.6663947
11
334.0809836
21
233.6663947
0
ARC
8
bottom_labelLayer
10
339.192992
20
228.6371562
40
7.4319402
50
74.2393366
51
90.5623779
0
ARC
8
bottom_labelLayer
10
339.6844181
20
230.4399733
40
5.5634447
50
38.5631252
51
74.0670445
0
ARC
8
bottom_labelLayer
10
338.419758
20
229.4566268
40
7.1653314
50
16.4709305
51
38.4075242
0
ARC
8
bottom_labelLayer
10
334.7764632
20
228.3141977
40
10.9832088
50
5.1338484
51
16.7973332
0
ARC
8
bottom_labelLayer
10
330.1771362
20
227.8256246
40
15.6079845
50
359.877929
51
5.409363
0
ARC
8
bottom_labelLayer
10
331.5280547
20
227.7082579
40
14.2572786
50
350.6562798
51
0.3380286
0
ARC
8
bottom_labelLayer
10
336.4983836
20
226.8628579
40
9.2156793
50
335.8305911
51
350.825491
0
ARC
8
bottom_labelLayer
10
338.6847257
20
225.9192025
40
6.8347136
50
321.3161505
51
335.5436077
0
ARC
8
bottom_labelLayer
10
339.5205885
20
225.2381023
40
5.756538
50
274.064006
51
321.4080996
0
ARC
8
bottom_labelLayer
10
339.1311907
20
227.7046826
40
8.2472799
50
269.922576
51
275.5481714
0
ARC
8
bottom_labelLayer
10
339.0790398
20
226.8329887
40
7.3756924
50
255.7755386
51
270.3185464
0
ARC
8
bottom_labelLayer
10
338.8685565
20
225.8978336
40
6.4175402
50
245.9801486
51
255.5455754
0
ARC
8
bottom_labelLayer
10
338.4608762
20
224.9497725
40
5.3856465
50
215.5850231
51
245.8361624
0
ARC
8
bottom_labelLayer
10
283.383099
20
236.9633787
40
50.6979027
50
358.1123242
51
0.0484375
0
ARC
8
bottom_labelLayer
10
297.4930287
20
236.4896786
40
36.5800273
50
355.7238644
51
358.1258871
0
ARC
8
bottom_labelLayer
10
303.765307
20
236.0582578
40
30.2930644
50
355.4713576
51
355.6530087
0
ARC
8
bottom_labelLayer
10
338.6158873
20
230.5040845
40
5.5286126
50
95.1835129
51
145.1109004
0
ARC
8
bottom_labelLayer
10
339.1018329
20
227.7637851
40
8.3049733
50
89.8743476
51
96.8145341
0
ARC
8
bottom_labelLayer
10
338.7175769
20
227.1996706
40
6.8331246
50
89.5731434
51
100.7324176
0
ARC
8
bottom_labelLayer
10
338.2117361
20
229.7553624
40
4.2279915
50
100.4469528
51
119.6700723
0
ARC
8
bottom_labelLayer
10
337.7426665
20
230.632343
40
3.233909
50
120.1402875
51
142.4249075
0
ARC
8
bottom_labelLayer
10
338.5186991
20
230.1189713
40
4.1625406
50
143.3382276
51
161.2559935
0
ARC
8
bottom_labelLayer
10
341.7639225
20
228.9668078
40
7.6060392
50
160.8926354
51
171.233432
0
ARC
8
bottom_labelLayer
10
347.1814969
20
228.0928278
40
13.0935806
50
171.0667915
51
177.8456746
0
ARC
8
bottom_labelLayer
10
352.8156486
20
227.8062792
40
18.7346701
50
177.6176752
51
180.0425345
0
ARC
8
bottom_labelLayer
10
350.1586982
20
227.729592
40
16.0778372
50
179.7762762
51
185.7075238
0
ARC
8
bottom_labelLayer
10
343.8197792
20
227.0764608
40
9.7054088
50
185.5924934
51
194.205064
0
ARC
8
bottom_labelLayer
10
339.7591306
20
226.0225834
40
5.5103634
50
193.9430518
51
208.0218313
0
ARC
8
bottom_labelLayer
10
338.116186
20
225.1867751
40
3.667512
50
208.5536784
51
217.5605297
0
ARC
8
bottom_labelLayer
10
337.9823202
20
225.1310936
40
3.5276509
50
218.1690464
51
253.8047204
0
ARC
8
bottom_labelLayer
10
338.6366307
20
227.1483969
40
5.6477781
50
253.1382386
51
266.8483183
0
ARC
8
bottom_labelLayer
10
338.8201138
20
229.3121951
40
7.8186553
50
266.3775488
51
270.0510292
0
ARC
8
bottom_labelLayer
10
338.8789472
20
226.34072
40
4.8474545
50
269.3868986
51
285.8630641
0
ARC
8
bottom_labelLayer
10
339.2390836
20
225.0391388
40
3.4970136
50
286.0162822
51
326.8497419
0
ARC
8
bottom_labelLayer
10
337.5008921
20
226.1906296
40
5.5819897
50
326.7104876
51
343.6661894
0
ARC
8
bottom_labelLayer
10
334.2470865
20
227.1848895
40
8.9841737
50
343.4171289
51
353.6369161
0
ARC
8
bottom_labelLayer
10
329.3325094
20
227.7680379
40
13.9331478
50
353.4934819
51
0.2205382
0
ARC
8
bottom_labelLayer
10
328.8993326
20
227.879821
40
14.366339
50
359.7680741
51
6.3095199
0
ARC
8
bottom_labelLayer
10
334.3108527
20
228.5008264
40
8.9193781
50
6.164853
51
16.039649
0
ARC
8
bottom_labelLayer
10
337.7968434
20
229.528148
40
5.2852981
50
15.7779476
51
32.0151302
0
ARC
8
bottom_labelLayer
10
338.8838545
20
230.1506372
40
4.0338953
50
32.7034216
51
35.5242113
0
ARC
8
bottom_labelLayer
10
339.2814865
20
230.4332543
40
3.5460609
50
35.5408426
51
79.8011184
0
ARC
8
bottom_labelLayer
10
338.8052874
20
228.4088376
40
5.6238884
50
78.6781294
51
90.3749572
0
ARC
8
bottom_labelLayer
10
351.330421
20
227.7076958
40
12.5604183
50
349.1761864
51
0.3862596
0
ARC
8
bottom_labelLayer
10
355.5592187
20
226.8646752
40
8.2486133
50
330.2507034
51
349.4116504
0
ARC
8
bottom_labelLayer
10
356.8606312
20
226.1882514
40
6.7833274
50
318.1439661
51
329.756624
0
ARC
8
bottom_labelLayer
10
357.0955121
20
226.0000167
40
6.4828019
50
278.8959164
51
317.9979139
0
ARC
8
bottom_labelLayer
10
356.490299
20
228.8996448
40
9.4423243
50
269.7502939
51
279.803326
0
ARC
8
bottom_labelLayer
10
356.3921465
20
227.2658807
40
7.8086785
50
253.5436906
51
270.4182464
0
ARC
8
bottom_labelLayer
10
356.1322114
20
226.2603864
40
6.7708312
50
238.8115492
51
253.2428307
0
ARC
8
bottom_labelLayer
10
356.0483218
20
226.0916847
40
6.5830881
50
207.7947022
51
238.6757923
0
ARC
8
bottom_labelLayer
10
357.2521184
20
226.8289513
40
7.9923033
50
205.6560385
51
208.4461342
0
ARC
8
bottom_labelLayer
10
358.1792832
20
227.2152635
40
8.9954763
50
188.9102484
51
205.317141
0
ARC
8
bottom_labelLayer
10
361.3040062
20
227.7444899
40
12.1645231
50
179.7744751
51
189.0932848
0
ARC
8
bottom_labelLayer
10
361.7649405
20
227.8778869
40
12.6256528
50
169.244298
51
180.388077
0
ARC
8
bottom_labelLayer
10
357.4773721
20
228.7253825
40
8.2553117
50
150.7111559
51
169.469537
0
ARC
8
bottom_labelLayer
10
356.1086386
20
229.4282771
40
6.717924
50
138.1759436
51
150.2287448
0
ARC
8
bottom_labelLayer
10
355.880963
20
229.6029908
40
6.4317904
50
99.1759344
51
137.983272
0
ARC
8
bottom_labelLayer
10
356.5076152
20
226.6538975
40
9.4442406
50
89.7326285
51
100.0759812
0
ARC
8
bottom_labelLayer
10
356.632863
20
227.927513
40
8.1709255
50
73.5222706
51
90.5692298
0
ARC
8
bottom_labelLayer
10
357.1120378
20
229.6684832
40
6.365635
50
41.1445706
51
73.2133776
0
ARC
8
bottom_labelLayer
10
356.1973274
20
228.8823034
40
7.5717415
50
13.501441
51
41.0703389
0
ARC
8
bottom_labelLayer
10
352.6633626
20
227.9575121
40
11.2241976
50
1.127719
51
13.880004
0
ARC
8
bottom_labelLayer
10
349.6188997
20
227.7943814
40
14.2716544
50
359.99193
51
1.5419575
0
ARC
8
bottom_labelLayer
10
363.9727298
20
227.7291781
40
12.3137834
50
179.7059623
51
187.9160759
0
ARC
8
bottom_labelLayer
10
359.4564091
20
227.0804133
40
7.7511771
50
187.7639223
51
200.0976943
0
ARC
8
bottom_labelLayer
10
356.9684019
20
226.168804
40
5.1014207
50
200.0846
51
216.9131549
0
ARC
8
bottom_labelLayer
10
356.0598618
20
225.5200649
40
3.9854566
50
217.3009623
51
261.7099028
0
ARC
8
bottom_labelLayer
10
356.4816349
20
227.5327237
40
6.039237
50
260.5033161
51
270.2476795
0
ARC
8
bottom_labelLayer
10
356.5621385
20
227.141359
40
5.6480778
50
269.4481715
51
284.7255742
0
ARC
8
bottom_labelLayer
10
357.009264
20
225.4831165
40
3.930662
50
284.5662324
51
322.6333807
0
ARC
8
bottom_labelLayer
10
355.9638607
20
226.2383727
40
5.2200023
50
323.0089348
51
342.6390479
0
ARC
8
bottom_labelLayer
10
352.9737925
20
227.2156129
40
8.3655519
50
342.36157
51
353.7537588
0
ARC
8
bottom_labelLayer
10
348.5624289
20
227.7473452
40
12.808673
50
353.5363071
51
0.2014108
0
ARC
8
bottom_labelLayer
10
349.2383365
20
227.854298
40
12.1328442
50
359.7075578
51
7.8972726
0
ARC
8
bottom_labelLayer
10
353.6817058
20
228.4912952
40
7.6441213
50
7.7440016
51
20.0690143
0
ARC
8
bottom_labelLayer
10
356.1577455
20
229.399908
40
5.0066362
50
20.025706
51
37.4350462
0
ARC
8
bottom_labelLayer
10
356.9792754
20
229.9828534
40
4.0001225
50
37.9577585
51
80.4006217
0
ARC
8
bottom_labelLayer
10
356.5124281
20
227.8998364
40
6.1328634
50
79.3453306
51
90.3174901
0
ARC
8
bottom_labelLayer
10
356.4259834
20
228.2458243
40
5.7870191
50
89.4805888
51
103.8805052
0
ARC
8
bottom_labelLayer
10
355.9397242
20
230.0974961
40
3.872867
50
103.4685195
51
142.3118969
0
ARC
8
bottom_labelLayer
10
356.8850513
20
229.4326736
40
5.0276671
50
142.9025678
51
162.3749549
0
ARC
8
bottom_labelLayer
10
359.8637868
20
228.4400195
40
8.1672574
50
162.065324
51
173.1674838
0
ARC
8
bottom_labelLayer
10
364.5083725
20
227.8476279
40
12.8493827
50
173.0086085
51
180.2463918
0
LINE
8
bottom_labelLayer
10
375.5360617
20
221.757215
11
375.5360617
21
219.8968634
0
LINE
8
bottom_labelLayer
10
368.3290305
20
224.3646368
11
368.3290305
21
233.9154181
0
LINE
8
bottom_labelLayer
10
368.3290305
20
233.9154181
11
366.0292258
21
233.9154181
0
LINE
8
bottom_labelLayer
10
366.0292258
20
233.9154181
11
366.0292258
21
235.0872931
0
LINE
8
bottom_labelLayer
10
366.0292258
20
235.0872931
11
368.3290305
21
236.0980353
0
LINE
8
bottom_labelLayer
10
368.3290305
20
236.0980353
11
369.3544211
21
239.5257697
0
LINE
8
bottom_labelLayer
10
369.3544211
20
239.5257697
11
370.7606711
21
239.5257697
0
LINE
8
bottom_labelLayer
10
370.7606711
20
239.5257697
11
370.7606711
21
235.8050665
0
LINE
8
bottom_labelLayer
10
370.7606711
20
235.8050665
11
375.4188742
21
235.8050665
0
LINE
8
bottom_labelLayer
10
375.4188742
20
235.8050665
11
375.4188742
21
233.9154181
0
LINE
8
bottom_labelLayer
10
375.4188742
20
233.9154181
11
370.7606711
21
233.9154181
0
LINE
8
bottom_labelLayer
10
370.7606711
20
233.9154181
11
370.7606711
21
224.4671759
0
ARC
8
bottom_labelLayer
10
373.3554719
20
229.4500878
40
7.985859
50
269.8803567
51
278.3028147
0
ARC
8
bottom_labelLayer
10
373.4316162
20
228.8280839
40
7.359393
50
278.4155018
51
279.0081532
0
ARC
8
bottom_labelLayer
10
372.5354359
20
234.5532528
40
13.1542724
50
278.9589712
51
280.5104067
0
ARC
8
bottom_labelLayer
10
373.3894219
20
229.9710752
40
8.4931972
50
280.4847462
51
282.6268366
0
ARC
8
bottom_labelLayer
10
374.1383131
20
226.6439734
40
5.0828564
50
282.5876837
51
285.5794974
0
ARC
8
bottom_labelLayer
10
374.516204
20
225.25462
40
3.643069
50
285.7232314
51
286.2569026
0
ARC
8
bottom_labelLayer
10
374.5137291
20
222.0591561
40
2.3917929
50
287.9888546
51
295.3047972
0
ARC
8
bottom_labelLayer
10
373.9368337
20
223.8045477
40
4.2300386
50
283.3069859
51
288.1197273
0
ARC
8
bottom_labelLayer
10
373.3274494
20
226.3464887
40
6.8439962
50
280.0070073
51
283.3735269
0
ARC
8
bottom_labelLayer
10
372.9195361
20
228.5602547
40
9.0949815
50
279.1863331
51
280.1142569
0
ARC
8
bottom_labelLayer
10
372.6694003
20
229.9829986
40
10.5394295
50
275.5260473
51
279.2939327
0
ARC
8
bottom_labelLayer
10
372.9514542
20
227.0369829
40
7.5799446
50
270.8932554
51
275.5483689
0
ARC
8
bottom_labelLayer
10
372.9869062
20
225.688947
40
6.2315366
50
270.0030105
51
270.7605581
0
ARC
8
bottom_labelLayer
10
372.8891088
20
225.8077407
40
6.3510885
50
253.7847975
51
270.8852589
0
ARC
8
bottom_labelLayer
10
372.1366744
20
223.2416514
40
3.6769696
50
190.3817649
51
253.8772393
0
ARC
8
bottom_labelLayer
10
375.9718236
20
224.2786082
40
7.6432773
50
179.3550956
51
192.8477622
0
ARC
8
bottom_labelLayer
10
375.657079
20
224.4365508
40
4.8965037
50
179.6416421
51
189.750605
0
ARC
8
bottom_labelLayer
10
373.9285251
20
224.1282403
40
3.1407243
50
189.5479448
51
205.7873695
0
ARC
8
bottom_labelLayer
10
373.2181605
20
223.8006692
40
2.3586394
50
206.129448
51
221.4084032
0
ARC
8
bottom_labelLayer
10
373.1385093
20
223.7402311
40
2.258937
50
221.5949217
51
262.3505132
0
ARC
8
bottom_labelLayer
10
373.3279438
20
224.714373
40
3.2501449
50
261.3266146
51
270.1913113
0
LINE
8
bottom_labelLayer
10
386.126882
20
221.757215
11
386.126882
21
219.8968634
0
LINE
8
bottom_labelLayer
10
378.9198508
20
224.3646368
11
378.9198508
21
233.9154181
0
LINE
8
bottom_labelLayer
10
378.9198508
20
233.9154181
11
376.6200461
21
233.9154181
0
LINE
8
bottom_labelLayer
10
376.6200461
20
233.9154181
11
376.6200461
21
235.0872931
0
LINE
8
bottom_labelLayer
10
376.6200461
20
235.0872931
11
378.9198508
21
236.0980353
0
LINE
8
bottom_labelLayer
10
378.9198508
20
236.0980353
11
379.9452414
21
239.5257697
0
LINE
8
bottom_labelLayer
10
379.9452414
20
239.5257697
11
381.3514914
21
239.5257697
0
LINE
8
bottom_labelLayer
10
381.3514914
20
239.5257697
11
381.3514914
21
235.8050665
0
LINE
8
bottom_labelLayer
10
381.3514914
20
235.8050665
11
386.0096945
21
235.8050665
0
LINE
8
bottom_labelLayer
10
386.0096945
20
235.8050665
11
386.0096945
21
233.9154181
0
LINE
8
bottom_labelLayer
10
386.0096945
20
233.9154181
11
381.3514914
21
233.9154181
0
LINE
8
bottom_labelLayer
10
381.3514914
20
233.9154181
11
381.3514914
21
224.4671759
0
ARC
8
bottom_labelLayer
10
383.9462922
20
229.4500878
40
7.985859
50
269.8803567
51
278.3028147
0
ARC
8
bottom_labelLayer
10
384.0224365
20
228.8280839
40
7.359393
50
278.4155018
51
279.0081532
0
ARC
8
bottom_labelLayer
10
383.1262562
20
234.5532528
40
13.1542724
50
278.9589712
51
280.5104067
0
ARC
8
bottom_labelLayer
10
383.9802422
20
229.9710752
40
8.4931972
50
280.4847462
51
282.6268366
0
ARC
8
bottom_labelLayer
10
384.7291334
20
226.6439734
40
5.0828564
50
282.5876837
51
285.5794974
0
ARC
8
bottom_labelLayer
10
385.1070243
20
225.25462
40
3.643069
50
285.7232314
51
286.2569026
0
ARC
8
bottom_labelLayer
10
385.1045495
20
222.0591561
40
2.3917929
50
287.9888546
51
295.3047972
0
ARC
8
bottom_labelLayer
10
384.527654
20
223.8045477
40
4.2300386
50
283.3069859
51
288.1197273
0
ARC
8
bottom_labelLayer
10
383.9182697
20
226.3464887
40
6.8439962
50
280.0070073
51
283.3735269
0
ARC
8
bottom_labelLayer
10
383.5103564
20
228.5602547
40
9.0949815
50
279.1863331
51
280.1142569
0
ARC
8
bottom_labelLayer
10
383.2602206
20
229.9829986
40
10.5394295
50
275.5260473
51
279.2939327
0
ARC
8
bottom_labelLayer
10
383.5422745
20
227.0369829
40
7.5799446
50
270.8932554
51
275.5483689
0
ARC
8
bottom_labelLayer
10
383.5777265
20
225.688947
40
6.2315366
50
270.0030105
51
270.7605581
0
ARC
8
bottom_labelLayer
10
383.4799292
20
225.8077407
40
6.3510885
50
253.7847975
51
270.8852589
0
ARC
8
bottom_labelLayer
10
382.7274947
20
223.2416514
40
3.6769696
50
190.3817649
51
253.8772393
0
ARC
8
bottom_labelLayer
10
386.5626439
20
224.2786082
40
7.6432773
50
179.3550956
51
192.8477622
0
ARC
8
bottom_labelLayer
10
386.2478994
20
224.4365508
40
4.8965037
50
179.6416421
51
189.750605
0
ARC
8
bottom_labelLayer
10
384.5193454
20
224.1282403
40
3.1407243
50
189.5479448
51
205.7873695
0
ARC
8
bottom_labelLayer
10
383.8089808
20
223.8006692
40
2.3586394
50
206.129448
51
221.4084032
0
ARC
8
bottom_labelLayer
10
383.7293296
20
223.7402311
40
2.258937
50
221.5949217
51
262.3505132
0
ARC
8
bottom_labelLayer
10
383.9187641
20
224.714373
40
3.2501449
50
261.3266146
51
270.1913113
0
ARC
8
bottom_labelLayer
10
390.6321788
20
227.7076958
40
12.5604183
50
349.1761864
51
0.3862596
0
ARC
8
bottom_labelLayer
10
394.8609765
20
226.8646752
40
8.2486133
50
330.2507034
51
349.4116504
0
ARC
8
bottom_labelLayer
10
396.162389
20
226.1882514
40
6.7833274
50
318.1439661
51
329.756624
0
ARC
8
bottom_labelLayer
10
396.3972699
20
226.0000167
40
6.4828019
50
278.8959164
51
317.9979139
0
ARC
8
bottom_labelLayer
10
395.7920568
20
228.8996448
40
9.4423243
50
269.7502939
51
279.803326
0
ARC
8
bottom_labelLayer
10
395.6939044
20
227.2658807
40
7.8086785
50
253.5436906
51
270.4182464
0
ARC
8
bottom_labelLayer
10
395.4339693
20
226.2603864
40
6.7708312
50
238.8115492
51
253.2428307
0
ARC
8
bottom_labelLayer
10
395.3500796
20
226.0916847
40
6.5830881
50
207.7947022
51
238.6757923
0
ARC
8
bottom_labelLayer
10
396.5538763
20
226.8289513
40
7.9923033
50
205.6560385
51
208.4461342
0
ARC
8
bottom_labelLayer
10
397.481041
20
227.2152635
40
8.9954763
50
188.9102484
51
205.317141
0
ARC
8
bottom_labelLayer
10
400.605764
20
227.7444899
40
12.1645231
50
179.7744751
51
189.0932848
0
ARC
8
bottom_labelLayer
10
401.0666983
20
227.8778869
40
12.6256528
50
169.244298
51
180.388077
0
ARC
8
bottom_labelLayer
10
396.77913
20
228.7253825
40
8.2553117
50
150.7111559
51
169.469537
0
ARC
8
bottom_labelLayer
10
395.4103964
20
229.4282771
40
6.717924
50
138.1759436
51
150.2287448
0
ARC
8
bottom_labelLayer
10
395.1827208
20
229.6029908
40
6.4317904
50
99.1759344
51
137.983272
0
ARC
8
bottom_labelLayer
10
395.809373
20
226.6538975
40
9.4442406
50
89.7326285
51
100.0759812
0
ARC
8
bottom_labelLayer
10
395.9346208
20
227.927513
40
8.1709255
50
73.5222706
51
90.5692298
0
ARC
8
bottom_labelLayer
10
396.4137956
20
229.6684832
40
6.365635
50
41.1445706
51
73.2133776
0
ARC
8
bottom_labelLayer
10
395.4990853
20
228.8823034
40
7.5717415
50
13.501441
51
41.0703389
0
ARC
8
bottom_labelLayer
10
391.9651204
20
227.9575121
40
11.2241976
50
1.127719
51
13.880004
0
ARC
8
bottom_labelLayer
10
388.9206575
20
227.7943814
40
14.2716544
50
359.99193
51
1.5419575
0
ARC
8
bottom_labelLayer
10
403.2744876
20
227.7291781
40
12.3137834
50
179.7059623
51
187.9160759
0
ARC
8
bottom_labelLayer
10
398.7581669
20
227.0804133
40
7.7511771
50
187.7639223
51
200.0976943
0
ARC
8
bottom_labelLayer
10
396.2701597
20
226.168804
40
5.1014207
50
200.0846
51
216.9131549
0
ARC
8
bottom_labelLayer
10
395.3616196
20
225.5200649
40
3.9854566
50
217.3009623
51
261.7099028
0
ARC
8
bottom_labelLayer
10
395.7833927
20
227.5327237
40
6.039237
50
260.5033161
51
270.2476795
0
ARC
8
bottom_labelLayer
10
395.8638963
20
227.141359
40
5.6480778
50
269.4481715
51
284.7255742
0
ARC
8
bottom_labelLayer
10
396.3110218
20
225.4831165
40
3.930662
50
284.5662324
51
322.6333807
0
ARC
8
bottom_labelLayer
10
395.2656185
20
226.2383727
40
5.2200023
50
323.0089348
51
342.6390479
0
ARC
8
bottom_labelLayer
10
392.2755503
20
227.2156129
40
8.3655519
50
342.36157
51
353.7537588
0
ARC
8
bottom_labelLayer
10
387.8641867
20
227.7473452
40
12.808673
50
353.5363071
51
0.2014108
0
ARC
8
bottom_labelLayer
10
388.5400943
20
227.854298
40
12.1328442
50
359.7075578
51
7.8972726
0
ARC
8
bottom_labelLayer
10
392.9834636
20
228.4912952
40
7.6441213
50
7.7440016
51
20.0690143
0
ARC
8
bottom_labelLayer
10
395.4595033
20
229.399908
40
5.0066362
50
20.025706
51
37.4350462
0
ARC
8
bottom_labelLayer
10
396.2810332
20
229.9828534
40
4.0001225
50
37.9577585
51
80.4006217
0
ARC
8
bottom_labelLayer
10
395.8141859
20
227.8998364
40
6.1328634
50
79.3453306
51
90.3174901
0
ARC
8
bottom_labelLayer
10
395.7277412
20
228.2458243
40
5.7870191
50
89.4805888
51
103.8805052
0
ARC
8
bottom_labelLayer
10
395.241482
20
230.0974961
40
3.872867
50
103.4685195
51
142.3118969
0
ARC
8
bottom_labelLayer
10
396.1868091
20
229.4326736
40
5.0276671
50
142.9025678
51
162.3749549
0
ARC
8
bottom_labelLayer
10
399.1655446
20
228.4400195
40
8.1672574
50
162.065324
51
173.1674838
0
ARC
8
bottom_labelLayer
10
403.8101303
20
227.8476279
40
12.8493827
50
173.0086085
51
180.2463918
0
LINE
8
bottom_labelLayer
10
430.3505148
20
219.750379
11
427.9188742
21
219.750379
0
LINE
8
bottom_labelLayer
10
427.9188742
20
219.750379
11
427.9188742
21
230.194715
0
LINE
8
bottom_labelLayer
10
420.111257
20
228.7152228
11
420.111257
21
219.750379
0
LINE
8
bottom_labelLayer
10
420.111257
20
219.750379
11
417.6796164
21
219.750379
0
LINE
8
bottom_labelLayer
10
417.6796164
20
219.750379
11
417.6796164
21
230.194715
0
LINE
8
bottom_labelLayer
10
409.8866477
20
228.1732306
11
409.8866477
21
219.750379
0
LINE
8
bottom_labelLayer
10
409.8866477
20
219.750379
11
407.455007
21
219.750379
0
LINE
8
bottom_labelLayer
10
407.455007
20
219.750379
11
407.455007
21
235.8050665
0
LINE
8
bottom_labelLayer
10
407.455007
20
235.8050665
11
409.4325461
21
235.8050665
0
LINE
8
bottom_labelLayer
10
409.4325461
20
235.8050665
11
409.8280539
21
233.6078009
0
LINE
8
bottom_labelLayer
10
409.8280539
20
233.6078009
11
409.9452414
21
233.6078009
0
LINE
8
bottom_labelLayer
10
419.6132102
20
233.3734259
11
419.7303977
21
233.3734259
0
LINE
8
bottom_labelLayer
10
430.3505148
20
230.2240118
11
430.3505148
21
219.750379
0
ARC
8
bottom_labelLayer
10
420.7454423
20
230.2329212
40
7.1735337
50
359.6948412
51
8.1471569
0
ARC
8
bottom_labelLayer
10
423.3876763
20
230.6239429
40
4.5025706
50
7.9864598
51
20.7949449
0
ARC
8
bottom_labelLayer
10
424.848238
20
231.1834294
40
2.9385262
50
20.7071102
51
40.0217731
0
ARC
8
bottom_labelLayer
10
425.1686482
20
231.3930699
40
2.5587454
50
41.0408087
51
73.1792696
0
ARC
8
bottom_labelLayer
10
424.7050137
20
229.9907989
40
4.0353648
50
72.6395622
51
86.2568133
0
ARC
8
bottom_labelLayer
10
424.5564848
20
228.3880784
40
5.6445312
50
85.81445
51
90.0685292
0
ARC
8
bottom_labelLayer
10
424.5019179
20
227.7757881
40
6.2570002
50
89.5621444
51
101.2961684
0
ARC
8
bottom_labelLayer
10
424.0306582
20
230.0318668
40
3.9523679
50
101.0032146
51
121.7840497
0
ARC
8
bottom_labelLayer
10
423.6723876
20
230.6714818
40
3.2201243
50
122.3597243
51
140.2884124
0
ARC
8
bottom_labelLayer
10
424.3169577
20
230.1988608
40
4.0182314
50
140.9765313
51
161.1699503
0
ARC
8
bottom_labelLayer
10
426.7451975
20
229.3347045
40
6.5955176
50
160.8731736
51
172.5272444
0
ARC
8
bottom_labelLayer
10
430.8027458
20
228.774328
40
10.6915204
50
172.3776545
51
180.1829488
0
ARC
8
bottom_labelLayer
10
433.7642651
20
228.7151285
40
13.6530081
50
179.8948303
51
179.9996044
0
ARC
8
bottom_labelLayer
10
410.5061845
20
230.2329212
40
7.1735337
50
359.6948412
51
8.1471569
0
ARC
8
bottom_labelLayer
10
413.1484185
20
230.6239429
40
4.5025706
50
7.9864598
51
20.7949449
0
ARC
8
bottom_labelLayer
10
414.6089802
20
231.1834294
40
2.9385262
50
20.7071102
51
40.0217731
0
ARC
8
bottom_labelLayer
10
414.9360522
20
231.3976729
40
2.5506986
50
41.0610782
51
72.8993578
0
ARC
8
bottom_labelLayer
10
414.4636349
20
229.9912338
40
4.0340522
50
72.3601072
51
85.9561854
0
ARC
8
bottom_labelLayer
10
414.3037157
20
228.3385126
40
5.6940984
50
85.5237807
51
90.0793753
0
ARC
8
bottom_labelLayer
10
414.2491657
20
227.9932902
40
6.0394956
50
89.557324
51
101.4832189
0
ARC
8
bottom_labelLayer
10
413.7856139
20
230.1651332
40
3.8189048
50
101.1546399
51
123.0655699
0
ARC
8
bottom_labelLayer
10
413.4705163
20
230.7140195
40
3.1871925
50
123.702056
51
142.3022107
0
ARC
8
bottom_labelLayer
10
414.2086139
20
230.213285
40
4.0777804
50
143.0769812
51
161.3913865
0
ARC
8
bottom_labelLayer
10
417.183829
20
229.162506
40
7.2329072
50
161.023442
51
171.4469179
0
ARC
8
bottom_labelLayer
10
422.1092568
20
228.390951
40
12.2183448
50
171.3041897
51
178.3501563
0
ARC
8
bottom_labelLayer
10
426.8165132
20
228.180712
40
16.9298673
50
178.0976048
51
180.0253193
0
ARC
8
bottom_labelLayer
10
414.06477
20
231.1853146
40
4.779012
50
117.1209586
51
149.5423691
0
ARC
8
bottom_labelLayer
10
414.5525085
20
230.318422
40
5.7730632
50
93.8343302
51
117.5072193
0
ARC
8
bottom_labelLayer
10
414.6872214
20
229.1251987
40
6.9728377
50
89.9661975
51
94.2831347
0
ARC
8
bottom_labelLayer
10
414.7679376
20
228.1371993
40
7.9612045
50
77.5572274
51
90.5513066
0
ARC
8
bottom_labelLayer
10
415.5066482
20
231.3145351
40
4.6994767
50
52.7027109
51
78.0053701
0
ARC
8
bottom_labelLayer
10
415.7698373
20
231.8042079
40
4.1513804
50
22.2097953
51
51.497048
0
ARC
8
bottom_labelLayer
10
424.1354205
20
230.8488977
40
5.0771516
50
119.4041742
51
150.1828832
0
ARC
8
bottom_labelLayer
10
424.6984671
20
229.992688
40
6.0999035
50
118.2583932
51
120.063035
0
ARC
8
bottom_labelLayer
10
424.6968983
20
229.930023
40
6.1544357
50
95.8635192
51
117.9693216
0
ARC
8
bottom_labelLayer
10
424.9051863
20
228.4239347
40
7.6741079
50
89.9196779
51
96.2617467
0
ARC
8
bottom_labelLayer
10
424.9720571
20
227.6456981
40
8.4525235
50
79.9361034
51
90.3803642
0
ARC
8
bottom_labelLayer
10
425.5352596
20
230.695947
40
5.350833
50
62.9723339
51
80.1665038
0
ARC
8
bottom_labelLayer
10
426.1240187
20
231.9038543
40
4.0073749
50
44.2289892
51
62.6229128
0
ARC
8
bottom_labelLayer
10
425.9489057
20
231.826493
40
4.1873466
50
19.5612133
51
43.3161203
0
ARC
8
bottom_labelLayer
10
423.4057499
20
230.8712812
40
6.9037114
50
7.50419
51
19.9645416
0
ARC
8
bottom_labelLayer
10
419.19754
20
230.2803204
40
11.153117
50
359.7107303
51
7.6907354
0
ENDSEC
0
EOF